<svg xmlns="http://www.w3.org/2000/svg" viewBox="0 0 980 300" font-family="'Red Hat Text', system-ui, sans-serif" role="img">
<defs><marker id="a" viewBox="0 0 10 10" refX="8.5" refY="5" markerWidth="9" markerHeight="9" orient="auto-start-reverse"><path d="M0,0 L10,5 L0,10 z" fill="#555"/></marker><marker id="am" viewBox="0 0 10 10" refX="8.5" refY="5" markerWidth="9" markerHeight="9" orient="auto-start-reverse"><path d="M0,0 L10,5 L0,10 z" fill="#b8650a"/></marker></defs>
<rect x="22" y="72" width="140" height="58" rx="9" fill="#ffffff" stroke="#999999" stroke-width="1.5"/>
<text x="92.0" y="99.0" font-size="13.5" font-weight="700" fill="#111111" text-anchor="middle">Foundations</text>
<text x="92.0" y="116.0" font-size="11.5" fill="#555555" text-anchor="middle">Part 0</text>
<rect x="180" y="72" width="140" height="58" rx="9" fill="#ffffff" stroke="#999999" stroke-width="1.5"/>
<text x="250.0" y="99.0" font-size="13.5" font-weight="700" fill="#111111" text-anchor="middle">Tracing &amp; probing</text>
<text x="250.0" y="116.0" font-size="11.5" fill="#555555" text-anchor="middle">Parts 1–2</text>
<rect x="338" y="72" width="140" height="58" rx="9" fill="#ffffff" stroke="#999999" stroke-width="1.5"/>
<text x="408.0" y="99.0" font-size="13.5" font-weight="700" fill="#111111" text-anchor="middle">Perf · net · sec</text>
<text x="408.0" y="116.0" font-size="11.5" fill="#555555" text-anchor="middle">Parts 3–5</text>
<rect x="496" y="72" width="140" height="58" rx="9" fill="#ffffff" stroke="#999999" stroke-width="1.5"/>
<text x="566.0" y="99.0" font-size="13.5" font-weight="700" fill="#111111" text-anchor="middle">Schedulers→surface</text>
<text x="566.0" y="116.0" font-size="11.5" fill="#555555" text-anchor="middle">Parts 6–8</text>
<rect x="654" y="72" width="140" height="58" rx="9" fill="#ffffff" stroke="#999999" stroke-width="1.5"/>
<text x="724.0" y="99.0" font-size="13.5" font-weight="700" fill="#111111" text-anchor="middle">Operating eBPF</text>
<text x="724.0" y="116.0" font-size="11.5" fill="#555555" text-anchor="middle">Part 9</text>
<rect x="812" y="72" width="140" height="58" rx="9" fill="#ffffff" stroke="#999999" stroke-width="1.5"/>
<text x="882.0" y="99.0" font-size="13.5" font-weight="700" fill="#111111" text-anchor="middle">Field guide</text>
<text x="882.0" y="116.0" font-size="11.5" fill="#555555" text-anchor="middle">Part 10</text>
<rect x="120" y="196" width="740" height="70" rx="9" fill="#fff8ef" stroke="#e8870c" stroke-width="2"/>
<text x="490.0" y="229.0" font-size="13.5" font-weight="700" fill="#111111" text-anchor="middle">The frontier</text>
<text x="490.0" y="246.0" font-size="11.5" fill="#555555" text-anchor="middle">all-Rust kernel side · sched_ext · struct_ops · cpufreq_ext · OBI · bpfman / L3AF · DPU offload</text>
<path d="M162,101 L180,101" fill="none" stroke="#b8650a" stroke-width="2" marker-end="url(#am)"/>
<path d="M320,101 L338,101" fill="none" stroke="#b8650a" stroke-width="2" marker-end="url(#am)"/>
<path d="M478,101 L496,101" fill="none" stroke="#b8650a" stroke-width="2" marker-end="url(#am)"/>
<path d="M636,101 L654,101" fill="none" stroke="#b8650a" stroke-width="2" marker-end="url(#am)"/>
<path d="M794,101 L812,101" fill="none" stroke="#b8650a" stroke-width="2" marker-end="url(#am)"/>
<path d="M882,130 L620,196" fill="none" stroke="#b8650a" stroke-width="2" marker-end="url(#am)"/>
<text x="791.0" y="161.0" font-size="11" fill="#ffffff" stroke="#ffffff" stroke-width="3" paint-order="stroke" text-anchor="middle">what&#x27;s next</text>
<text x="791.0" y="161.0" font-size="11" fill="#b8650a" text-anchor="middle">what&#x27;s next</text>
<text x="490" y="36" font-size="15" fill="#b8650a" text-anchor="middle" font-weight="700">From a kprobe counting unlink to operating a fleet — and the road ahead</text>
<text x="490" y="288" font-size="12" fill="#1d1d1d" text-anchor="middle">the loop never changed: pick an event, write the handler, attach, observe — Rust to ship, bpftrace/bcc/bpftool to explore</text>
</svg>