<svg xmlns="http://www.w3.org/2000/svg" viewBox="0 0 1180 580" font-family="'Red Hat Text', system-ui, sans-serif" role="img">
<defs><marker id="a" viewBox="0 0 10 10" refX="8.5" refY="5" markerWidth="9" markerHeight="9" orient="auto-start-reverse"><path d="M0,0 L10,5 L0,10 z" fill="#555"/></marker><marker id="am" viewBox="0 0 10 10" refX="8.5" refY="5" markerWidth="9" markerHeight="9" orient="auto-start-reverse"><path d="M0,0 L10,5 L0,10 z" fill="#b8650a"/></marker></defs>
<rect x="430" y="130" width="410" height="40" rx="9" fill="#eef4fb" stroke="#2f6db5" stroke-width="2"/>
<text x="635.0" y="155.5" font-size="13.5" font-weight="700" fill="#111111" text-anchor="middle">Applications</text>
<rect x="570" y="170" width="270" height="36" rx="9" fill="#eef4fb" stroke="#2f6db5" stroke-width="2"/>
<text x="705.0" y="193.5" font-size="13.5" font-weight="700" fill="#111111" text-anchor="middle">System Libraries</text>
<rect x="430" y="206" width="410" height="40" rx="9" fill="#fff8ef" stroke="#e8870c" stroke-width="2"/>
<text x="635.0" y="231.5" font-size="13.5" font-weight="700" fill="#111111" text-anchor="middle">System Call Interface</text>
<rect x="430" y="246" width="140" height="41" rx="9" fill="#ffffff" stroke="#999999" stroke-width="1.5"/>
<text x="500.0" y="272.0" font-size="13.5" font-weight="700" fill="#111111" text-anchor="middle">VFS</text>
<rect x="570" y="246" width="140" height="41" rx="9" fill="#ffffff" stroke="#999999" stroke-width="1.5"/>
<text x="640.0" y="272.0" font-size="13.5" font-weight="700" fill="#111111" text-anchor="middle">Sockets</text>
<rect x="710" y="246" width="130" height="82" rx="9" fill="#ffffff" stroke="#111111" stroke-width="2"/>
<text x="775.0" y="292.5" font-size="13.5" font-weight="700" fill="#111111" text-anchor="middle">Scheduler</text>
<rect x="430" y="287" width="140" height="41" rx="9" fill="#ffffff" stroke="#999999" stroke-width="1.5"/>
<text x="500.0" y="313.0" font-size="13.5" font-weight="700" fill="#111111" text-anchor="middle">File Systems</text>
<rect x="570" y="287" width="140" height="41" rx="9" fill="#ffffff" stroke="#999999" stroke-width="1.5"/>
<text x="640.0" y="313.0" font-size="13.5" font-weight="700" fill="#111111" text-anchor="middle">TCP/UDP</text>
<rect x="430" y="328" width="140" height="41" rx="9" fill="#ffffff" stroke="#999999" stroke-width="1.5"/>
<text x="500.0" y="354.0" font-size="13.5" font-weight="700" fill="#111111" text-anchor="middle">Volume Manager</text>
<rect x="570" y="328" width="140" height="41" rx="9" fill="#ffffff" stroke="#999999" stroke-width="1.5"/>
<text x="640.0" y="354.0" font-size="13.5" font-weight="700" fill="#111111" text-anchor="middle">IP</text>
<rect x="710" y="328" width="130" height="82" rx="9" fill="#ffffff" stroke="#111111" stroke-width="2"/>
<text x="775.0" y="374.5" font-size="13.5" font-weight="700" fill="#111111" text-anchor="middle">Virtual Memory</text>
<rect x="430" y="369" width="140" height="41" rx="9" fill="#ffffff" stroke="#999999" stroke-width="1.5"/>
<text x="500.0" y="395.0" font-size="13.5" font-weight="700" fill="#111111" text-anchor="middle">Block Device</text>
<rect x="570" y="369" width="140" height="41" rx="9" fill="#ffffff" stroke="#999999" stroke-width="1.5"/>
<text x="640.0" y="395.0" font-size="13.5" font-weight="700" fill="#111111" text-anchor="middle">Net Device</text>
<rect x="430" y="410" width="410" height="36" rx="9" fill="#ffffff" stroke="#999999" stroke-width="1.5"/>
<text x="635.0" y="433.5" font-size="13.5" font-weight="700" fill="#111111" text-anchor="middle">Device Drivers</text>
<path d="M250,156 L430,260.5" fill="none" stroke="#555" stroke-width="2" marker-end="url(#a)"/>
<path d="M250,256 L430,272.5" fill="none" stroke="#555" stroke-width="2" marker-end="url(#a)"/>
<path d="M250,300 L430,307.5" fill="none" stroke="#555" stroke-width="2" marker-end="url(#a)"/>
<path d="M250,345 L430,348.5" fill="none" stroke="#555" stroke-width="2" marker-end="url(#a)"/>
<path d="M250,392 L430,389.5" fill="none" stroke="#555" stroke-width="2" marker-end="url(#a)"/>
<path d="M470,110 L515.0,130" fill="none" stroke="#555" stroke-width="2" marker-end="url(#a)"/>
<path d="M760,110 L800,170" fill="none" stroke="#555" stroke-width="2" marker-end="url(#a)"/>
<path d="M860,205 L840,226.0" fill="none" stroke="#555" stroke-width="2" marker-end="url(#a)"/>
<path d="M860,255 L840,269.0" fill="none" stroke="#555" stroke-width="2" marker-end="url(#a)"/>
<path d="M860,300 L840,301.0" fill="none" stroke="#555" stroke-width="2" marker-end="url(#a)"/>
<path d="M860,348 L840,369.0" fill="none" stroke="#555" stroke-width="2" marker-end="url(#a)"/>
<path d="M620,472 L640.0,328" fill="none" stroke="#555" stroke-width="2" marker-end="url(#a)"/>
<text x="60" y="152" font-size="13" fill="#1d1d1d" text-anchor="start">vfscount vfsstat</text>
<text x="60" y="256" font-size="13" fill="#1d1d1d" text-anchor="start">opensnoop statsnoop syncsnoop</text>
<text x="60" y="300" font-size="13" fill="#1d1d1d" text-anchor="start">writeback xfsdist</text>
<text x="60" y="345" font-size="13" fill="#1d1d1d" text-anchor="start">mdflush</text>
<text x="60" y="392" font-size="13" fill="#1d1d1d" text-anchor="start">biosnoop biolatency bitesize</text>
<text x="420" y="104" font-size="13" fill="#1d1d1d" text-anchor="start">bashreadline</text>
<text x="700" y="104" font-size="13" fill="#1d1d1d" text-anchor="start">gethostlatency</text>
<text x="862" y="205" font-size="13" fill="#1d1d1d" text-anchor="start">syscount killsnoop execsnoop pidpersec</text>
<text x="862" y="255" font-size="13" fill="#1d1d1d" text-anchor="start">cpuwalk runqlat runqlen</text>
<text x="862" y="300" font-size="13" fill="#1d1d1d" text-anchor="start">offcputime</text>
<text x="862" y="348" font-size="13" fill="#1d1d1d" text-anchor="start">oomkill</text>
<text x="540" y="490" font-size="13" fill="#1d1d1d" text-anchor="start">tcpconnect tcpaccept tcpretrans tcpdrop</text>
<text x="60" y="520" font-size="12" fill="#1d1d1d" text-anchor="start">Other: capable</text>
<text x="590" y="42" font-size="12" fill="#b8650a" text-anchor="middle" font-weight="700">bpftrace one-liners &amp; tools, mapped to the layer each observes (bpftrace project)</text>
</svg>