<svg xmlns="http://www.w3.org/2000/svg" viewBox="0 0 900 430" font-family="'Red Hat Text', system-ui, sans-serif" role="img">
<defs><marker id="a" viewBox="0 0 10 10" refX="8.5" refY="5" markerWidth="9" markerHeight="9" orient="auto-start-reverse"><path d="M0,0 L10,5 L0,10 z" fill="#555"/></marker><marker id="am" viewBox="0 0 10 10" refX="8.5" refY="5" markerWidth="9" markerHeight="9" orient="auto-start-reverse"><path d="M0,0 L10,5 L0,10 z" fill="#b8650a"/></marker></defs>
<rect x="28" y="52" width="120" height="48" rx="9" fill="#eef4fb" stroke="#2f6db5" stroke-width="2"/>
<text x="88.0" y="74.0" font-size="13.5" font-weight="700" fill="#111111" text-anchor="middle">curl / Postman</text>
<text x="88.0" y="91.0" font-size="11.5" fill="#555555" text-anchor="middle">+ traceparent</text>
<rect x="188" y="52" width="170" height="52" rx="9" fill="#eef4fb" stroke="#2f6db5" stroke-width="2"/>
<text x="273.0" y="76.0" font-size="13.5" font-weight="700" fill="#111111" text-anchor="middle">FastAPI /checkout</text>
<text x="273.0" y="93.0" font-size="11.5" fill="#555555" text-anchor="middle">(Podman)</text>
<rect x="386" y="52" width="166" height="52" rx="9" fill="#eef4fb" stroke="#2f6db5" stroke-width="2"/>
<text x="469.0" y="76.0" font-size="13.5" font-weight="700" fill="#111111" text-anchor="middle">Quarkus /inventory</text>
<text x="469.0" y="93.0" font-size="11.5" fill="#555555" text-anchor="middle">(Podman)</text>
<rect x="584" y="46" width="288" height="62" rx="9" fill="#f4f4f4" stroke="#888888" stroke-width="1.5"/>
<text x="728.0" y="75.0" font-size="13.5" font-weight="700" fill="#111111" text-anchor="middle">eBPF / Aya — socket/L7 observer</text>
<text x="728.0" y="92.0" font-size="11.5" fill="#555555" text-anchor="middle">extracts traceparent · emits ebpf_* per request</text>
<rect x="250" y="150" width="200" height="50" rx="9" fill="#fff8ef" stroke="#e8870c" stroke-width="2"/>
<text x="350.0" y="180.5" font-size="13.5" font-weight="700" fill="#111111" text-anchor="middle">OTel Collector (OTLP)</text>
<rect x="108" y="238" width="216" height="42" rx="9" fill="#ffffff" stroke="#999999" stroke-width="1.5"/>
<text x="216.0" y="264.5" font-size="13.5" font-weight="700" fill="#111111" text-anchor="middle">Tempo — spans (both services)</text>
<rect x="342" y="238" width="216" height="42" rx="9" fill="#ffffff" stroke="#999999" stroke-width="1.5"/>
<text x="450.0" y="264.5" font-size="13.5" font-weight="700" fill="#111111" text-anchor="middle">Prometheus — app + ebpf metrics</text>
<rect x="576" y="238" width="216" height="42" rx="9" fill="#ffffff" stroke="#999999" stroke-width="1.5"/>
<text x="684.0" y="264.5" font-size="13.5" font-weight="700" fill="#111111" text-anchor="middle">Loki — logs (trace-stamped)</text>
<rect x="108" y="322" width="684" height="62" rx="9" fill="#ffffff" stroke="#111111" stroke-width="2"/>
<text x="450.0" y="358.5" font-size="13.5" font-weight="700" fill="#111111" text-anchor="middle">Grafana — ONE trace_id: app spans + eBPF view + metrics + logs</text>
<path d="M148,76 L188,78" fill="none" stroke="#555" stroke-width="2" marker-end="url(#a)"/>
<path d="M358,78 L386,78" fill="none" stroke="#555" stroke-width="2" marker-end="url(#a)"/>
<text x="372.0" y="70.0" font-size="11" fill="#ffffff" stroke="#ffffff" stroke-width="3" paint-order="stroke" text-anchor="middle">calls (traceparent)</text>
<text x="372.0" y="70.0" font-size="11" fill="#555" text-anchor="middle">calls (traceparent)</text>
<path d="M268,104 L330,150" fill="none" stroke="#555" stroke-width="2" marker-end="url(#a)"/>
<text x="295.0" y="123.0" font-size="11" fill="#ffffff" stroke="#ffffff" stroke-width="3" paint-order="stroke" text-anchor="middle">OTLP</text>
<text x="295.0" y="123.0" font-size="11" fill="#555" text-anchor="middle">OTLP</text>
<path d="M470,104 L400,150" fill="none" stroke="#555" stroke-width="2" marker-end="url(#a)"/>
<text x="441.0" y="123.0" font-size="11" fill="#ffffff" stroke="#ffffff" stroke-width="3" paint-order="stroke" text-anchor="middle">OTLP</text>
<text x="441.0" y="123.0" font-size="11" fill="#555" text-anchor="middle">OTLP</text>
<path d="M584,80 L552,80" fill="none" stroke="#555" stroke-width="2" stroke-dasharray="5 4" marker-end="url(#a)"/>
<text x="566.0" y="72.0" font-size="11" fill="#ffffff" stroke="#ffffff" stroke-width="3" paint-order="stroke" text-anchor="middle">observes sockets</text>
<text x="566.0" y="72.0" font-size="11" fill="#555" text-anchor="middle">observes sockets</text>
<path d="M700,108 L520,238" fill="none" stroke="#b8650a" stroke-width="2" marker-end="url(#am)"/>
<text x="640.0" y="173.0" font-size="11" fill="#ffffff" stroke="#ffffff" stroke-width="3" paint-order="stroke" text-anchor="middle">ebpf_* + trace_id</text>
<text x="640.0" y="173.0" font-size="11" fill="#b8650a" text-anchor="middle">ebpf_* + trace_id</text>
<path d="M300,200 L230,238" fill="none" stroke="#b8650a" stroke-width="2" marker-end="url(#am)"/>
<path d="M350,200 L420,238" fill="none" stroke="#b8650a" stroke-width="2" marker-end="url(#am)"/>
<path d="M420,200 L640,238" fill="none" stroke="#b8650a" stroke-width="2" marker-end="url(#am)"/>
<path d="M450,322 L450,280" fill="none" stroke="#b8650a" stroke-width="2" marker-end="url(#am)"/>
<text x="486.0" y="303.0" font-size="11" fill="#ffffff" stroke="#ffffff" stroke-width="3" paint-order="stroke" text-anchor="middle">correlate</text>
<text x="486.0" y="303.0" font-size="11" fill="#b8650a" text-anchor="middle">correlate</text>
<text x="450" y="28" font-size="11" fill="#b8650a" text-anchor="middle" font-weight="700">the capstone: one request, every layer, one trace_id</text>
<text x="450" y="410" font-size="11" fill="#888" text-anchor="middle">app SDKs supply the trace_id; the eBPF layer extracts it from L7 (or correlates by time+pid+service) — kernel-to-span in one view</text>
</svg>