<svg xmlns="http://www.w3.org/2000/svg" viewBox="0 0 880 430" font-family="'Red Hat Text', system-ui, sans-serif" role="img">
<defs><marker id="a" viewBox="0 0 10 10" refX="8.5" refY="5" markerWidth="9" markerHeight="9" orient="auto-start-reverse"><path d="M0,0 L10,5 L0,10 z" fill="#555"/></marker><marker id="am" viewBox="0 0 10 10" refX="8.5" refY="5" markerWidth="9" markerHeight="9" orient="auto-start-reverse"><path d="M0,0 L10,5 L0,10 z" fill="#b8650a"/></marker></defs>
<rect x="20" y="54" width="840" height="162" rx="12" fill="#fff8ef" stroke="#ddd"/>
<text x="32" y="74" font-size="12" font-weight="700" fill="#888">Development — compile once</text>
<rect x="20" y="244" width="840" height="168" rx="12" fill="#fafafa" stroke="#ddd"/>
<text x="32" y="264" font-size="12" font-weight="700" fill="#888">Target runtime — relocate to THIS kernel</text>
<rect x="40" y="96" width="160" height="52" rx="9" fill="#eef4fb" stroke="#2f6db5" stroke-width="2"/>
<text x="120.0" y="120.0" font-size="13.5" font-weight="700" fill="#111111" text-anchor="middle">eBPF source</text>
<text x="120.0" y="137.0" font-size="11.5" fill="#555555" text-anchor="middle">reads task-&gt;pid</text>
<rect x="40" y="158" width="160" height="44" rx="9" fill="#ffffff" stroke="#999999" stroke-width="1.5"/>
<text x="120.0" y="185.5" font-size="13.5" font-weight="700" fill="#111111" text-anchor="middle">vmlinux.h (from BTF)</text>
<rect x="256" y="110" width="150" height="68" rx="9" fill="#ffffff" stroke="#111111" stroke-width="2"/>
<text x="331.0" y="134.5" font-size="13.5" font-weight="700" fill="#111111" text-anchor="middle">compiler</text>
<text x="331.0" y="151.5" font-size="11.5" fill="#555555" text-anchor="middle">preserve_access</text>
<text x="331.0" y="166.5" font-size="11.5" fill="#555555" text-anchor="middle">_index</text>
<rect x="470" y="104" width="210" height="80" rx="9" fill="#fff8ef" stroke="#e8870c" stroke-width="2"/>
<text x="575.0" y="134.5" font-size="13.5" font-weight="700" fill="#111111" text-anchor="middle">.o + BTF relocations</text>
<text x="575.0" y="151.5" font-size="11.5" fill="#555555" text-anchor="middle">“field pid in task_struct”</text>
<text x="575.0" y="166.5" font-size="11.5" fill="#555555" text-anchor="middle">by NAME, not offset</text>
<rect x="40" y="300" width="200" height="56" rx="9" fill="#ffffff" stroke="#999999" stroke-width="1.5"/>
<text x="140.0" y="326.0" font-size="13.5" font-weight="700" fill="#111111" text-anchor="middle">target kernel BTF</text>
<text x="140.0" y="343.0" font-size="11.5" fill="#555555" text-anchor="middle">/sys/kernel/btf/vmlinux</text>
<rect x="300" y="298" width="200" height="64" rx="9" fill="#ffffff" stroke="#111111" stroke-width="2"/>
<text x="400.0" y="328.0" font-size="13.5" font-weight="700" fill="#111111" text-anchor="middle">loader (aya / libbpf)</text>
<text x="400.0" y="345.0" font-size="11.5" fill="#555555" text-anchor="middle">patch offsets by name</text>
<rect x="584" y="296" width="250" height="68" rx="9" fill="#f4f4f4" stroke="#888888" stroke-width="1.5"/>
<text x="709.0" y="320.5" font-size="13.5" font-weight="700" fill="#111111" text-anchor="middle">loaded &amp; running</text>
<text x="709.0" y="337.5" font-size="11.5" fill="#555555" text-anchor="middle">correct offsets for</text>
<text x="709.0" y="352.5" font-size="11.5" fill="#555555" text-anchor="middle">THIS kernel</text>
<path d="M200,122 L256,134" fill="none" stroke="#555" stroke-width="2" marker-end="url(#a)"/>
<path d="M200,180 L256,156" fill="none" stroke="#555" stroke-width="2" marker-end="url(#a)"/>
<path d="M406,144 L470,144" fill="none" stroke="#555" stroke-width="2" marker-end="url(#a)"/>
<text x="438.0" y="136.0" font-size="11" fill="#ffffff" stroke="#ffffff" stroke-width="3" paint-order="stroke" text-anchor="middle">emit relocs</text>
<text x="438.0" y="136.0" font-size="11" fill="#555" text-anchor="middle">emit relocs</text>
<path d="M560,184 L400,298" fill="none" stroke="#b8650a" stroke-width="2" marker-end="url(#am)"/>
<text x="474.0" y="249.0" font-size="11" fill="#ffffff" stroke="#ffffff" stroke-width="3" paint-order="stroke" text-anchor="middle">ship the one .o</text>
<text x="474.0" y="249.0" font-size="11" fill="#b8650a" text-anchor="middle">ship the one .o</text>
<path d="M240,328 L300,328" fill="none" stroke="#b8650a" stroke-width="2" marker-end="url(#am)"/>
<text x="270.0" y="320.0" font-size="11" fill="#ffffff" stroke="#ffffff" stroke-width="3" paint-order="stroke" text-anchor="middle">read</text>
<text x="270.0" y="320.0" font-size="11" fill="#b8650a" text-anchor="middle">read</text>
<path d="M500,330 L584,330" fill="none" stroke="#b8650a" stroke-width="2" marker-end="url(#am)"/>
<text x="542.0" y="322.0" font-size="11" fill="#ffffff" stroke="#ffffff" stroke-width="3" paint-order="stroke" text-anchor="middle">load</text>
<text x="542.0" y="322.0" font-size="11" fill="#b8650a" text-anchor="middle">load</text>
<text x="440" y="34" font-size="11" fill="#b8650a" text-anchor="middle" font-weight="700">compile once against generic types; relocate to the target kernel at load</text>
<text x="440" y="424" font-size="11" fill="#888" text-anchor="middle">found by NAME + type, not offset — survives fields moving, nesting, or differing across versions (kernels ≥ 5.8 with BTF)</text>
</svg>