<svg xmlns="http://www.w3.org/2000/svg" viewBox="0 0 880 330" font-family="'Red Hat Text', system-ui, sans-serif" role="img">
<defs><marker id="a" viewBox="0 0 10 10" refX="8.5" refY="5" markerWidth="9" markerHeight="9" orient="auto-start-reverse"><path d="M0,0 L10,5 L0,10 z" fill="#555"/></marker><marker id="am" viewBox="0 0 10 10" refX="8.5" refY="5" markerWidth="9" markerHeight="9" orient="auto-start-reverse"><path d="M0,0 L10,5 L0,10 z" fill="#b8650a"/></marker></defs>
<rect x="20" y="46" width="840" height="104" rx="12" fill="#eef4fb" stroke="#ddd"/>
<text x="32" y="66" font-size="12" font-weight="700" fill="#888">user space</text>
<rect x="20" y="176" width="840" height="120" rx="12" fill="#f4f4f4" stroke="#ddd"/>
<text x="32" y="196" font-size="12" font-weight="700" fill="#888">kernel</text>
<rect x="70" y="84" width="240" height="56" rx="9" fill="#eef4fb" stroke="#2f6db5" stroke-width="2"/>
<text x="190.0" y="110.0" font-size="13.5" font-weight="700" fill="#111111" text-anchor="middle">your loader binary</text>
<text x="190.0" y="127.0" font-size="11.5" fill="#555555" text-anchor="middle">reads the map, reports</text>
<rect x="600" y="84" width="200" height="56" rx="9" fill="#ffffff" stroke="#111111" stroke-width="2"/>
<text x="700.0" y="110.0" font-size="13.5" font-weight="700" fill="#111111" text-anchor="middle">Grafana</text>
<text x="700.0" y="127.0" font-size="11.5" fill="#555555" text-anchor="middle">(via OTLP)</text>
<rect x="70" y="210" width="200" height="62" rx="9" fill="#f4f4f4" stroke="#888888" stroke-width="1.5"/>
<text x="170.0" y="239.0" font-size="13.5" font-weight="700" fill="#111111" text-anchor="middle">event / hook</text>
<text x="170.0" y="256.0" font-size="11.5" fill="#555555" text-anchor="middle">kprobe · XDP · tracepoint</text>
<rect x="340" y="206" width="200" height="70" rx="9" fill="#fff8ef" stroke="#e8870c" stroke-width="2"/>
<text x="440.0" y="239.0" font-size="13.5" font-weight="700" fill="#111111" text-anchor="middle">eBPF program</text>
<text x="440.0" y="256.0" font-size="11.5" fill="#555555" text-anchor="middle">runs in kernel</text>
<rect x="600" y="210" width="200" height="62" rx="9" fill="#ffffff" stroke="#111111" stroke-width="2"/>
<text x="700.0" y="239.0" font-size="13.5" font-weight="700" fill="#111111" text-anchor="middle">map</text>
<text x="700.0" y="256.0" font-size="11.5" fill="#555555" text-anchor="middle">RingBuf / HashMap</text>
<path d="M190,140 L372,206" fill="none" stroke="#b8650a" stroke-width="2" marker-end="url(#am)"/>
<text x="263.0" y="171.0" font-size="11" fill="#ffffff" stroke="#ffffff" stroke-width="3" paint-order="stroke" text-anchor="middle">load + attach (once)</text>
<text x="263.0" y="171.0" font-size="11" fill="#b8650a" text-anchor="middle">load + attach (once)</text>
<path d="M270,240 L340,240" fill="none" stroke="#555" stroke-width="2" marker-end="url(#a)"/>
<text x="305.0" y="232.0" font-size="11" fill="#ffffff" stroke="#ffffff" stroke-width="3" paint-order="stroke" text-anchor="middle">fires</text>
<text x="305.0" y="232.0" font-size="11" fill="#555" text-anchor="middle">fires</text>
<path d="M540,240 L600,240" fill="none" stroke="#555" stroke-width="2" marker-end="url(#a)"/>
<text x="570.0" y="232.0" font-size="11" fill="#ffffff" stroke="#ffffff" stroke-width="3" paint-order="stroke" text-anchor="middle">writes</text>
<text x="570.0" y="232.0" font-size="11" fill="#555" text-anchor="middle">writes</text>
<path d="M640,210 L300,140" fill="none" stroke="#555" stroke-width="2" stroke-dasharray="5 4" marker-end="url(#a)"/>
<text x="510.0" y="173.0" font-size="11" fill="#ffffff" stroke="#ffffff" stroke-width="3" paint-order="stroke" text-anchor="middle">user reads</text>
<text x="510.0" y="173.0" font-size="11" fill="#555" text-anchor="middle">user reads</text>
<path d="M310,108 L600,108" fill="none" stroke="#555" stroke-width="2" marker-end="url(#a)"/>
<text x="455.0" y="100.0" font-size="11" fill="#ffffff" stroke="#ffffff" stroke-width="3" paint-order="stroke" text-anchor="middle">reports</text>
<text x="455.0" y="100.0" font-size="11" fill="#555" text-anchor="middle">reports</text>
<text x="440" y="32" font-size="11" fill="#b8650a" text-anchor="middle" font-weight="700">at runtime: the hook fires the program, which writes a map the loader reads</text>
<text x="440" y="316" font-size="11" fill="#888" text-anchor="middle">the map is the only channel between kernel and user space</text>
</svg>