<svg xmlns="http://www.w3.org/2000/svg" viewBox="0 0 860 290" font-family="'Red Hat Text', system-ui, sans-serif" role="img">
<defs><marker id="a" viewBox="0 0 10 10" refX="8.5" refY="5" markerWidth="9" markerHeight="9" orient="auto-start-reverse"><path d="M0,0 L10,5 L0,10 z" fill="#555"/></marker><marker id="am" viewBox="0 0 10 10" refX="8.5" refY="5" markerWidth="9" markerHeight="9" orient="auto-start-reverse"><path d="M0,0 L10,5 L0,10 z" fill="#b8650a"/></marker></defs>
<rect x="20" y="165" width="820" height="100" rx="12" fill="#fff8ef" stroke="#ddd"/>
<text x="32" y="185" font-size="12" font-weight="700" fill="#888">where it attaches — the hook fires the program</text>
<rect x="20" y="60" width="150" height="70" rx="9" fill="#ffffff" stroke="#111111" stroke-width="2"/>
<text x="95.0" y="93.0" font-size="13.5" font-weight="700" fill="#111111" text-anchor="middle">Rust source</text>
<text x="95.0" y="110.0" font-size="11.5" fill="#555555" text-anchor="middle">ebpf crate, no_std</text>
<rect x="190" y="60" width="150" height="70" rx="9" fill="#ffffff" stroke="#111111" stroke-width="2"/>
<text x="265.0" y="93.0" font-size="13.5" font-weight="700" fill="#111111" text-anchor="middle">BPF bytecode</text>
<text x="265.0" y="110.0" font-size="11.5" fill="#555555" text-anchor="middle">object file</text>
<rect x="360" y="60" width="150" height="70" rx="9" fill="#fff8ef" stroke="#e8870c" stroke-width="2"/>
<text x="435.0" y="93.0" font-size="13.5" font-weight="700" fill="#111111" text-anchor="middle">load + verify</text>
<text x="435.0" y="110.0" font-size="11.5" fill="#555555" text-anchor="middle">kernel proves safety</text>
<rect x="530" y="60" width="150" height="70" rx="9" fill="#ffffff" stroke="#111111" stroke-width="2"/>
<text x="605.0" y="93.0" font-size="13.5" font-weight="700" fill="#111111" text-anchor="middle">JIT compile</text>
<text x="605.0" y="110.0" font-size="11.5" fill="#555555" text-anchor="middle">to native code</text>
<rect x="700" y="60" width="140" height="70" rx="9" fill="#ffffff" stroke="#111111" stroke-width="2"/>
<text x="770.0" y="93.0" font-size="13.5" font-weight="700" fill="#111111" text-anchor="middle">attach</text>
<text x="770.0" y="110.0" font-size="11.5" fill="#555555" text-anchor="middle">to a hook</text>
<rect x="35" y="200" width="150" height="48" rx="9" fill="#fff8ef" stroke="#e8870c" stroke-width="2"/>
<text x="110.0" y="229.5" font-size="13.5" font-weight="700" fill="#111111" text-anchor="middle">kprobe / kretprobe</text>
<rect x="195" y="200" width="150" height="48" rx="9" fill="#fff8ef" stroke="#e8870c" stroke-width="2"/>
<text x="270.0" y="229.5" font-size="13.5" font-weight="700" fill="#111111" text-anchor="middle">tracepoint</text>
<rect x="355" y="200" width="150" height="48" rx="9" fill="#fff8ef" stroke="#e8870c" stroke-width="2"/>
<text x="430.0" y="229.5" font-size="13.5" font-weight="700" fill="#111111" text-anchor="middle">uprobe / uretprobe</text>
<rect x="515" y="200" width="150" height="48" rx="9" fill="#fff8ef" stroke="#e8870c" stroke-width="2"/>
<text x="590.0" y="229.5" font-size="13.5" font-weight="700" fill="#111111" text-anchor="middle">perf_event</text>
<rect x="675" y="200" width="150" height="48" rx="9" fill="#fff8ef" stroke="#e8870c" stroke-width="2"/>
<text x="750.0" y="229.5" font-size="13.5" font-weight="700" fill="#111111" text-anchor="middle">XDP · tc · LSM</text>
<text x="430" y="40" font-size="11" fill="#888" text-anchor="middle">build once on the host</text>
<path d="M170,95 L190,95" fill="none" stroke="#555" stroke-width="2" marker-end="url(#a)"/>
<path d="M340,95 L360,95" fill="none" stroke="#555" stroke-width="2" marker-end="url(#a)"/>
<path d="M510,95 L530,95" fill="none" stroke="#555" stroke-width="2" marker-end="url(#a)"/>
<path d="M680,95 L700,95" fill="none" stroke="#555" stroke-width="2" marker-end="url(#a)"/>
</svg>