<svg xmlns="http://www.w3.org/2000/svg" viewBox="0 0 820 300" font-family="'Red Hat Text', system-ui, sans-serif" role="img">
<defs><marker id="a" viewBox="0 0 10 10" refX="9" refY="5" markerWidth="7" markerHeight="7" orient="auto-start-reverse"><path d="M0,0 L10,5 L0,10 z" fill="#555"/></marker><marker id="am" viewBox="0 0 10 10" refX="9" refY="5" markerWidth="7" markerHeight="7" orient="auto-start-reverse"><path d="M0,0 L10,5 L0,10 z" fill="#b8650a"/></marker></defs>
<path d="M160,163 L215,163" fill="none" stroke="#555" stroke-width="2" marker-end="url(#a)"/>
<path d="M355,155 L420,155" fill="none" stroke="#555" stroke-width="2" marker-end="url(#a)"/>
<text x="369.5" y="151.0" font-size="11" fill="#555">sched</text>
<path d="M420,175 L355,175" fill="none" stroke="#555" stroke-width="2" marker-end="url(#a)"/>
<text x="357.5" y="193.0" font-size="11" fill="#555">preempt</text>
<path d="M510,135 L640,106" fill="none" stroke="#555" stroke-width="2" marker-end="url(#a)"/>
<text x="565.0" y="116.5" font-size="11" fill="#555">block</text>
<path d="M620,92 L300,150" fill="none" stroke="#555" stroke-width="2" stroke-dasharray="5 4" marker-end="url(#a)"/>
<text x="580.0" y="115.0" font-size="11" fill="#555">wake</text>
<path d="M500,191 L650,215" fill="none" stroke="#555" stroke-width="2" marker-end="url(#a)"/>
<text x="565.0" y="217.0" font-size="11" fill="#555">exit</text>
<rect x="40" y="135" width="120" height="56" rx="9" fill="#ffffff" stroke="#999999" stroke-width="1.5"/>
<text x="100.0" y="168.5" font-size="13.5" font-weight="700" fill="#111111" text-anchor="middle">_Gidle</text>
<rect x="215" y="135" width="140" height="56" rx="9" fill="#ffffff" stroke="#111111" stroke-width="2"/>
<text x="285.0" y="161.0" font-size="13.5" font-weight="700" fill="#111111" text-anchor="middle">_Grunnable</text>
<text x="285.0" y="178.0" font-size="11.5" fill="#555555" text-anchor="middle">on a run queue</text>
<rect x="420" y="135" width="140" height="56" rx="9" fill="#fff8ef" stroke="#e8870c" stroke-width="2"/>
<text x="490.0" y="161.0" font-size="13.5" font-weight="700" fill="#111111" text-anchor="middle">_Grunning</text>
<text x="490.0" y="178.0" font-size="11.5" fill="#555555" text-anchor="middle">on a CPU</text>
<rect x="620" y="50" width="150" height="56" rx="9" fill="#ffffff" stroke="#111111" stroke-width="2"/>
<text x="695.0" y="76.0" font-size="13.5" font-weight="700" fill="#111111" text-anchor="middle">_Gwaiting</text>
<text x="695.0" y="93.0" font-size="11.5" fill="#555555" text-anchor="middle">chan / sleep</text>
<rect x="620" y="215" width="150" height="56" rx="9" fill="#ffffff" stroke="#999999" stroke-width="1.5"/>
<text x="695.0" y="248.5" font-size="13.5" font-weight="700" fill="#111111" text-anchor="middle">_Gdead</text>
<text x="410" y="290" font-size="11" fill="#b8650a" text-anchor="middle">runtime.casgstatus fires on every transition — one uprobe sees the whole machine</text>
</svg>