<svg xmlns="http://www.w3.org/2000/svg" viewBox="0 0 820 300" font-family="'Red Hat Text', system-ui, sans-serif" role="img">
<defs><marker id="a" viewBox="0 0 10 10" refX="8.5" refY="5" markerWidth="9" markerHeight="9" orient="auto-start-reverse"><path d="M0,0 L10,5 L0,10 z" fill="#555"/></marker><marker id="am" viewBox="0 0 10 10" refX="8.5" refY="5" markerWidth="9" markerHeight="9" orient="auto-start-reverse"><path d="M0,0 L10,5 L0,10 z" fill="#b8650a"/></marker></defs>
<rect x="40" y="172" width="120" height="56" rx="9" fill="#ffffff" stroke="#999999" stroke-width="1.5"/>
<text x="100.0" y="205.5" font-size="13.5" font-weight="700" fill="#111111" text-anchor="middle">_Gidle</text>
<rect x="220" y="172" width="140" height="56" rx="9" fill="#ffffff" stroke="#111111" stroke-width="2"/>
<text x="290.0" y="198.0" font-size="13.5" font-weight="700" fill="#111111" text-anchor="middle">_Grunnable</text>
<text x="290.0" y="215.0" font-size="11.5" fill="#555555" text-anchor="middle">on a run queue</text>
<rect x="420" y="172" width="140" height="56" rx="9" fill="#fff8ef" stroke="#e8870c" stroke-width="2"/>
<text x="490.0" y="198.0" font-size="13.5" font-weight="700" fill="#111111" text-anchor="middle">_Grunning</text>
<text x="490.0" y="215.0" font-size="11.5" fill="#555555" text-anchor="middle">on a CPU</text>
<rect x="420" y="58" width="140" height="56" rx="9" fill="#ffffff" stroke="#111111" stroke-width="2"/>
<text x="490.0" y="84.0" font-size="13.5" font-weight="700" fill="#111111" text-anchor="middle">_Gwaiting</text>
<text x="490.0" y="101.0" font-size="11.5" fill="#555555" text-anchor="middle">chan / sleep</text>
<rect x="650" y="172" width="120" height="56" rx="9" fill="#ffffff" stroke="#999999" stroke-width="1.5"/>
<text x="710.0" y="205.5" font-size="13.5" font-weight="700" fill="#111111" text-anchor="middle">_Gdead</text>
<path d="M160,200 L220,200" fill="none" stroke="#555" stroke-width="2" marker-end="url(#a)"/>
<path d="M360,190 L420,190" fill="none" stroke="#555" stroke-width="2" marker-end="url(#a)"/>
<text x="360.0" y="184.0" font-size="11" fill="#ffffff" stroke="#ffffff" stroke-width="3" paint-order="stroke" text-anchor="middle">sched</text>
<text x="360.0" y="184.0" font-size="11" fill="#555" text-anchor="middle">sched</text>
<path d="M420,212 L360,212" fill="none" stroke="#555" stroke-width="2" marker-end="url(#a)"/>
<text x="420.0" y="228.0" font-size="11" fill="#ffffff" stroke="#ffffff" stroke-width="3" paint-order="stroke" text-anchor="middle">preempt</text>
<text x="420.0" y="228.0" font-size="11" fill="#555" text-anchor="middle">preempt</text>
<path d="M480,172 L480,114" fill="none" stroke="#555" stroke-width="2" marker-end="url(#a)"/>
<text x="504.0" y="145.0" font-size="11" fill="#ffffff" stroke="#ffffff" stroke-width="3" paint-order="stroke" text-anchor="middle">block</text>
<text x="504.0" y="145.0" font-size="11" fill="#555" text-anchor="middle">block</text>
<path d="M430,114 L295,172" fill="none" stroke="#555" stroke-width="2" stroke-dasharray="5 4" marker-end="url(#a)"/>
<text x="382.5" y="141.0" font-size="11" fill="#ffffff" stroke="#ffffff" stroke-width="3" paint-order="stroke" text-anchor="middle">wake</text>
<text x="382.5" y="141.0" font-size="11" fill="#555" text-anchor="middle">wake</text>
<path d="M560,200 L650,200" fill="none" stroke="#555" stroke-width="2" marker-end="url(#a)"/>
<text x="583.0" y="194.0" font-size="11" fill="#ffffff" stroke="#ffffff" stroke-width="3" paint-order="stroke" text-anchor="middle">exit</text>
<text x="583.0" y="194.0" font-size="11" fill="#555" text-anchor="middle">exit</text>
<text x="410" y="285" font-size="11" fill="#b8650a" text-anchor="middle">runtime.casgstatus fires on every transition — one uprobe sees the whole machine</text>
</svg>