<svg xmlns="http://www.w3.org/2000/svg" viewBox="0 0 880 300" font-family="'Red Hat Text', system-ui, sans-serif" role="img">
<defs><marker id="a" viewBox="0 0 10 10" refX="8.5" refY="5" markerWidth="9" markerHeight="9" orient="auto-start-reverse"><path d="M0,0 L10,5 L0,10 z" fill="#555"/></marker><marker id="am" viewBox="0 0 10 10" refX="8.5" refY="5" markerWidth="9" markerHeight="9" orient="auto-start-reverse"><path d="M0,0 L10,5 L0,10 z" fill="#b8650a"/></marker></defs>
<rect x="20" y="42" width="620" height="210" rx="12" fill="#fff8ef" stroke="#ddd"/>
<text x="32" y="62" font-size="12" font-weight="700" fill="#888">JVM (libjvm.so) — HotSpot USDT probes</text>
<rect x="40" y="92" width="180" height="58" rx="9" fill="#fff8ef" stroke="#e8870c" stroke-width="2"/>
<text x="130.0" y="119.0" font-size="13.5" font-weight="700" fill="#111111" text-anchor="middle">Garbage collector</text>
<text x="130.0" y="136.0" font-size="11.5" fill="#555555" text-anchor="middle">gc__begin · gc__end</text>
<rect x="238" y="92" width="180" height="58" rx="9" fill="#ffffff" stroke="#111111" stroke-width="2"/>
<text x="328.0" y="119.0" font-size="13.5" font-weight="700" fill="#111111" text-anchor="middle">Memory pools</text>
<text x="328.0" y="136.0" font-size="11.5" fill="#555555" text-anchor="middle">mem__pool__gc__*</text>
<rect x="436" y="92" width="184" height="58" rx="9" fill="#ffffff" stroke="#111111" stroke-width="2"/>
<text x="528.0" y="119.0" font-size="13.5" font-weight="700" fill="#111111" text-anchor="middle">JIT compiler</text>
<text x="528.0" y="136.0" font-size="11.5" fill="#555555" text-anchor="middle">method__compile__*</text>
<rect x="40" y="172" width="180" height="58" rx="9" fill="#ffffff" stroke="#111111" stroke-width="2"/>
<text x="130.0" y="199.0" font-size="13.5" font-weight="700" fill="#111111" text-anchor="middle">Threads</text>
<text x="130.0" y="216.0" font-size="11.5" fill="#555555" text-anchor="middle">thread__start · stop</text>
<rect x="238" y="172" width="180" height="58" rx="9" fill="#ffffff" stroke="#111111" stroke-width="2"/>
<text x="328.0" y="199.0" font-size="13.5" font-weight="700" fill="#111111" text-anchor="middle">Monitors / locks</text>
<text x="328.0" y="216.0" font-size="11.5" fill="#555555" text-anchor="middle">monitor__contended__*</text>
<rect x="436" y="172" width="184" height="58" rx="9" fill="#ffffff" stroke="#111111" stroke-width="2"/>
<text x="528.0" y="199.0" font-size="13.5" font-weight="700" fill="#111111" text-anchor="middle">Allocation · classes</text>
<text x="528.0" y="216.0" font-size="11.5" fill="#555555" text-anchor="middle">object__alloc · class__loaded</text>
<rect x="700" y="131" width="160" height="70" rx="9" fill="#eef4fb" stroke="#2f6db5" stroke-width="2"/>
<text x="780.0" y="164.0" font-size="13.5" font-weight="700" fill="#111111" text-anchor="middle">eBPF uprobe</text>
<text x="780.0" y="181.0" font-size="11.5" fill="#555555" text-anchor="middle">at the probe&#x27;s offset</text>
<path d="M640,166 L700,166" fill="none" stroke="#b8650a" stroke-width="2" marker-end="url(#am)"/>
<text x="670.0" y="158.0" font-size="11" fill="#ffffff" stroke="#ffffff" stroke-width="3" paint-order="stroke" text-anchor="middle">USDT → uprobe</text>
<text x="670.0" y="158.0" font-size="11" fill="#b8650a" text-anchor="middle">USDT → uprobe</text>
<text x="330" y="278" font-size="11" fill="#888" text-anchor="middle">Ch 20 times gc__begin → gc__end; the same uprobe-at-offset reaches every subsystem</text>
</svg>