<svg xmlns="http://www.w3.org/2000/svg" viewBox="0 0 880 440" font-family="'Red Hat Text', system-ui, sans-serif" role="img">
<defs><marker id="a" viewBox="0 0 10 10" refX="8.5" refY="5" markerWidth="9" markerHeight="9" orient="auto-start-reverse"><path d="M0,0 L10,5 L0,10 z" fill="#555"/></marker><marker id="am" viewBox="0 0 10 10" refX="8.5" refY="5" markerWidth="9" markerHeight="9" orient="auto-start-reverse"><path d="M0,0 L10,5 L0,10 z" fill="#b8650a"/></marker></defs>
<rect x="20" y="60" width="392" height="352" rx="12" fill="#fafafa" stroke="#ddd"/>
<text x="32" y="80" font-size="12" font-weight="700" fill="#888">host laptop (Fedora 44)</text>
<rect x="40" y="100" width="352" height="52" rx="9" fill="#fff8ef" stroke="#e8870c" stroke-width="2"/>
<text x="216.0" y="124.0" font-size="13.5" font-weight="700" fill="#111111" text-anchor="middle">Aya build</text>
<text x="216.0" y="141.0" font-size="11.5" fill="#555555" text-anchor="middle">cargo → self-contained binary</text>
<rect x="40" y="214" width="352" height="50" rx="9" fill="#ffffff" stroke="#111111" stroke-width="2"/>
<text x="216.0" y="237.0" font-size="13.5" font-weight="700" fill="#111111" text-anchor="middle">otel-lgtm stack</text>
<text x="216.0" y="254.0" font-size="11.5" fill="#555555" text-anchor="middle">Grafana :3000 · OTLP :4317/4318</text>
<rect x="40" y="290" width="170" height="54" rx="9" fill="#ffffff" stroke="#111111" stroke-width="2"/>
<text x="125.0" y="315.0" font-size="13.5" font-weight="700" fill="#111111" text-anchor="middle">Python 3.14</text>
<text x="125.0" y="332.0" font-size="11.5" fill="#555555" text-anchor="middle">load clients</text>
<rect x="222" y="290" width="170" height="54" rx="9" fill="#ffffff" stroke="#111111" stroke-width="2"/>
<text x="307.0" y="315.0" font-size="13.5" font-weight="700" fill="#111111" text-anchor="middle">app targets</text>
<text x="307.0" y="332.0" font-size="11.5" fill="#555555" text-anchor="middle">Quarkus / FastAPI</text>
<rect x="490" y="100" width="360" height="84" rx="9" fill="#f4f4f4" stroke="#888888" stroke-width="1.5"/>
<text x="670.0" y="140.0" font-size="13.5" font-weight="700" fill="#111111" text-anchor="middle">target VM (Fedora 44)</text>
<text x="670.0" y="157.0" font-size="11.5" fill="#555555" text-anchor="middle">your eBPF program loads &amp; attaches</text>
<rect x="490" y="256" width="360" height="72" rx="9" fill="#ffffff" stroke="#111111" stroke-width="2"/>
<text x="670.0" y="290.0" font-size="13.5" font-weight="700" fill="#111111" text-anchor="middle">peer VM (Fedora 44)</text>
<text x="670.0" y="307.0" font-size="11.5" fill="#555555" text-anchor="middle">client / server for two-host tests</text>
<path d="M392,126 L490,132" fill="none" stroke="#b8650a" stroke-width="2" marker-end="url(#am)"/>
<text x="441.0" y="121.0" font-size="11" fill="#ffffff" stroke="#ffffff" stroke-width="3" paint-order="stroke" text-anchor="middle">scp + run (sudo)</text>
<text x="441.0" y="121.0" font-size="11" fill="#b8650a" text-anchor="middle">scp + run (sudo)</text>
<path d="M490,168 L392,230" fill="none" stroke="#555" stroke-width="2" marker-end="url(#a)"/>
<text x="435.0" y="195.0" font-size="11" fill="#ffffff" stroke="#ffffff" stroke-width="3" paint-order="stroke" text-anchor="middle">OTLP</text>
<text x="435.0" y="195.0" font-size="11" fill="#555" text-anchor="middle">OTLP</text>
<path d="M670,184 L670,256" fill="none" stroke="#555" stroke-width="2" marker-start="url(#a)" marker-end="url(#a)"/>
<text x="712.0" y="222.0" font-size="11" fill="#ffffff" stroke="#ffffff" stroke-width="3" paint-order="stroke" text-anchor="middle">test traffic</text>
<text x="712.0" y="222.0" font-size="11" fill="#555" text-anchor="middle">test traffic</text>
<text x="300" y="196" font-size="11" fill="#888888" text-anchor="start">Podman containers:</text>
<text x="440" y="40" font-size="11" fill="#b8650a" text-anchor="middle" font-weight="700">build on the host · deploy to the target VM · watch results in Grafana</text>
</svg>