<svg xmlns="http://www.w3.org/2000/svg" viewBox="0 0 1180 600" font-family="'Red Hat Text', system-ui, sans-serif" role="img">
<defs><marker id="a" viewBox="0 0 10 10" refX="8.5" refY="5" markerWidth="9" markerHeight="9" orient="auto-start-reverse"><path d="M0,0 L10,5 L0,10 z" fill="#555"/></marker><marker id="am" viewBox="0 0 10 10" refX="8.5" refY="5" markerWidth="9" markerHeight="9" orient="auto-start-reverse"><path d="M0,0 L10,5 L0,10 z" fill="#b8650a"/></marker></defs>
<rect x="430" y="130" width="410" height="40" rx="9" fill="#eef4fb" stroke="#2f6db5" stroke-width="2"/>
<text x="635.0" y="155.5" font-size="13.5" font-weight="700" fill="#111111" text-anchor="middle">Applications</text>
<rect x="570" y="170" width="270" height="36" rx="9" fill="#eef4fb" stroke="#2f6db5" stroke-width="2"/>
<text x="705.0" y="193.5" font-size="13.5" font-weight="700" fill="#111111" text-anchor="middle">System Libraries</text>
<rect x="430" y="206" width="410" height="40" rx="9" fill="#fff8ef" stroke="#e8870c" stroke-width="2"/>
<text x="635.0" y="231.5" font-size="13.5" font-weight="700" fill="#111111" text-anchor="middle">System Call Interface</text>
<rect x="430" y="246" width="140" height="41" rx="9" fill="#ffffff" stroke="#999999" stroke-width="1.5"/>
<text x="500.0" y="272.0" font-size="13.5" font-weight="700" fill="#111111" text-anchor="middle">VFS</text>
<rect x="570" y="246" width="140" height="41" rx="9" fill="#ffffff" stroke="#999999" stroke-width="1.5"/>
<text x="640.0" y="272.0" font-size="13.5" font-weight="700" fill="#111111" text-anchor="middle">Sockets</text>
<rect x="710" y="246" width="130" height="82" rx="9" fill="#ffffff" stroke="#111111" stroke-width="2"/>
<text x="775.0" y="292.5" font-size="13.5" font-weight="700" fill="#111111" text-anchor="middle">Scheduler</text>
<rect x="430" y="287" width="140" height="41" rx="9" fill="#ffffff" stroke="#999999" stroke-width="1.5"/>
<text x="500.0" y="313.0" font-size="13.5" font-weight="700" fill="#111111" text-anchor="middle">File Systems</text>
<rect x="570" y="287" width="140" height="41" rx="9" fill="#ffffff" stroke="#999999" stroke-width="1.5"/>
<text x="640.0" y="313.0" font-size="13.5" font-weight="700" fill="#111111" text-anchor="middle">TCP/UDP</text>
<rect x="430" y="328" width="140" height="41" rx="9" fill="#ffffff" stroke="#999999" stroke-width="1.5"/>
<text x="500.0" y="354.0" font-size="13.5" font-weight="700" fill="#111111" text-anchor="middle">Volume Manager</text>
<rect x="570" y="328" width="140" height="41" rx="9" fill="#ffffff" stroke="#999999" stroke-width="1.5"/>
<text x="640.0" y="354.0" font-size="13.5" font-weight="700" fill="#111111" text-anchor="middle">IP</text>
<rect x="710" y="328" width="130" height="82" rx="9" fill="#ffffff" stroke="#111111" stroke-width="2"/>
<text x="775.0" y="374.5" font-size="13.5" font-weight="700" fill="#111111" text-anchor="middle">Virtual Memory</text>
<rect x="430" y="369" width="140" height="41" rx="9" fill="#ffffff" stroke="#999999" stroke-width="1.5"/>
<text x="500.0" y="395.0" font-size="13.5" font-weight="700" fill="#111111" text-anchor="middle">Block Device</text>
<rect x="570" y="369" width="140" height="41" rx="9" fill="#ffffff" stroke="#999999" stroke-width="1.5"/>
<text x="640.0" y="395.0" font-size="13.5" font-weight="700" fill="#111111" text-anchor="middle">Net Device</text>
<rect x="430" y="410" width="410" height="36" rx="9" fill="#ffffff" stroke="#999999" stroke-width="1.5"/>
<text x="635.0" y="433.5" font-size="13.5" font-weight="700" fill="#111111" text-anchor="middle">Device Drivers</text>
<rect x="1004" y="250" width="92" height="66" rx="9" fill="#ffffff" stroke="#111111" stroke-width="2"/>
<text x="1050.0" y="288.5" font-size="13.5" font-weight="700" fill="#111111" text-anchor="middle">CPU</text>
<rect x="1004" y="352" width="92" height="48" rx="9" fill="#ffffff" stroke="#111111" stroke-width="2"/>
<text x="1050.0" y="381.5" font-size="13.5" font-weight="700" fill="#111111" text-anchor="middle">DRAM</text>
<path d="M635,128 L635,206" fill="none" stroke="#555" stroke-width="2" marker-end="url(#a)"/>
<path d="M745,150 L665,246" fill="none" stroke="#555" stroke-width="2" marker-end="url(#a)"/>
<path d="M854,258 L840,285" fill="none" stroke="#555" stroke-width="2" marker-end="url(#a)"/>
<path d="M854,360 L840,372" fill="none" stroke="#555" stroke-width="2" marker-end="url(#a)"/>
<path d="M404,303 L430,307" fill="none" stroke="#555" stroke-width="2" marker-end="url(#a)"/>
<path d="M404,390 L430,389" fill="none" stroke="#555" stroke-width="2" marker-end="url(#a)"/>
<path d="M575,478 L628,410" fill="none" stroke="#555" stroke-width="2" marker-end="url(#a)"/>
<path d="M800,478 L772,446" fill="none" stroke="#555" stroke-width="2" marker-end="url(#a)"/>
<path d="M410,186 L410,440" fill="none" stroke="#555" stroke-width="2" marker-start="url(#a)" marker-end="url(#a)"/>
<path d="M840,300 L1004,283" fill="none" stroke="#555" stroke-width="2" marker-end="url(#a)"/>
<text x="922.0" y="283.5" font-size="11" fill="#ffffff" stroke="#ffffff" stroke-width="3" paint-order="stroke" text-anchor="middle">CPU</text>
<text x="922.0" y="283.5" font-size="11" fill="#555" text-anchor="middle">CPU</text>
<path d="M1050,316 L1050,352" fill="none" stroke="#555" stroke-width="2" marker-start="url(#a)" marker-end="url(#a)"/>
<text x="1064.0" y="336.0" font-size="11" fill="#ffffff" stroke="#ffffff" stroke-width="3" paint-order="stroke" text-anchor="middle">bus</text>
<text x="1064.0" y="336.0" font-size="11" fill="#555" text-anchor="middle">bus</text>
<text x="610" y="36" font-size="14" fill="#b8650a" text-anchor="middle" font-weight="700">Tracepoints — stable kernel trace events (Linux 4.7+)</text>
<text x="635" y="116" font-size="13" fill="#1d1d1d" text-anchor="middle">syscalls:</text>
<text x="760" y="138" font-size="13" fill="#1d1d1d" text-anchor="middle">sock:</text>
<text x="862" y="250" font-size="13" fill="#1d1d1d" text-anchor="start">sched: signal: timer: workqueue:</text>
<text x="862" y="356" font-size="13" fill="#1d1d1d" text-anchor="start">kmem: vmscan: writeback:</text>
<text x="250" y="300" font-size="13" fill="#1d1d1d" text-anchor="start">ext4: jbd2:</text>
<text x="250" y="392" font-size="13" fill="#1d1d1d" text-anchor="start">block: scsi:</text>
<text x="560" y="500" font-size="13" fill="#1d1d1d" text-anchor="middle">net: skb:</text>
<text x="800" y="500" font-size="13" fill="#1d1d1d" text-anchor="middle">irq:</text>
<text x="40" y="150" font-size="14" fill="#b8650a" text-anchor="start" font-weight="700">Dynamic tracing</text>
<text x="40" y="250" font-size="12" fill="#1d1d1d" text-anchor="start">uprobes — user funcs (Linux 4.3)</text>
<text x="40" y="360" font-size="12" fill="#1d1d1d" text-anchor="start">kprobes — kernel funcs (Linux 4.1)</text>
<text x="878" y="160" font-size="14" fill="#b8650a" text-anchor="start" font-weight="700">PMCs / perf events</text>
<text x="878" y="184" font-size="12" fill="#1d1d1d" text-anchor="start">cycles · instructions · cache · branches (Linux 4.9)</text>
<text x="430" y="534" font-size="12" fill="#1d1d1d" text-anchor="start">Software events (Linux 4.9): cpu-clock · context-switches · migrations · page-faults</text>
<text x="430" y="562" font-size="13" fill="#b8650a" text-anchor="start" font-weight="700">This workshop runs Fedora 44&#x27;s modern 6.x kernel — every capability above is present.</text>
</svg>