<svg xmlns="http://www.w3.org/2000/svg" viewBox="0 0 900 330" font-family="'Red Hat Text', system-ui, sans-serif" role="img">
<defs><marker id="a" viewBox="0 0 10 10" refX="8.5" refY="5" markerWidth="9" markerHeight="9" orient="auto-start-reverse"><path d="M0,0 L10,5 L0,10 z" fill="#555"/></marker><marker id="am" viewBox="0 0 10 10" refX="8.5" refY="5" markerWidth="9" markerHeight="9" orient="auto-start-reverse"><path d="M0,0 L10,5 L0,10 z" fill="#b8650a"/></marker></defs>
<rect x="20" y="150" width="860" height="120" rx="12" fill="#f4f4f4" stroke="#ddd"/>
<text x="32" y="170" font-size="12" font-weight="700" fill="#888">RX path: NIC → application (TX mirrors it)</text>
<rect x="40" y="185" width="120" height="64" rx="9" fill="#ffffff" stroke="#111111" stroke-width="2"/>
<text x="100.0" y="215.0" font-size="13.5" font-weight="700" fill="#111111" text-anchor="middle">NIC driver</text>
<text x="100.0" y="232.0" font-size="11.5" fill="#555555" text-anchor="middle">packet arrives</text>
<rect x="200" y="185" width="130" height="64" rx="9" fill="#fff8ef" stroke="#e8870c" stroke-width="2"/>
<text x="265.0" y="215.0" font-size="13.5" font-weight="700" fill="#111111" text-anchor="middle">XDP</text>
<text x="265.0" y="232.0" font-size="11.5" fill="#555555" text-anchor="middle">earliest, fastest</text>
<rect x="370" y="185" width="130" height="64" rx="9" fill="#fff8ef" stroke="#e8870c" stroke-width="2"/>
<text x="435.0" y="215.0" font-size="13.5" font-weight="700" fill="#111111" text-anchor="middle">tc / tcx</text>
<text x="435.0" y="232.0" font-size="11.5" fill="#555555" text-anchor="middle">clsact qdisc</text>
<rect x="540" y="185" width="150" height="64" rx="9" fill="#ffffff" stroke="#111111" stroke-width="2"/>
<text x="615.0" y="215.0" font-size="13.5" font-weight="700" fill="#111111" text-anchor="middle">IP / TCP stack</text>
<text x="615.0" y="232.0" font-size="11.5" fill="#555555" text-anchor="middle">kprobes here</text>
<rect x="730" y="185" width="130" height="64" rx="9" fill="#eef4fb" stroke="#2f6db5" stroke-width="2"/>
<text x="795.0" y="215.0" font-size="13.5" font-weight="700" fill="#111111" text-anchor="middle">socket / app</text>
<text x="795.0" y="232.0" font-size="11.5" fill="#555555" text-anchor="middle">sockops, filters</text>
<text x="450" y="40" font-size="11" fill="#b8650a" text-anchor="middle" font-weight="700">where eBPF attaches along the network path</text>
<text x="265" y="120" font-size="11" fill="#888" text-anchor="middle">drop / redirect / rewrite before the stack (Ch 31–35)</text>
<text x="615" y="120" font-size="11" fill="#888" text-anchor="middle">connection + state tracing in the stack (Ch 27–30)</text>
<path d="M160,217 L200,217" fill="none" stroke="#555" stroke-width="2" marker-end="url(#a)"/>
<path d="M330,217 L370,217" fill="none" stroke="#555" stroke-width="2" marker-end="url(#a)"/>
<path d="M500,217 L540,217" fill="none" stroke="#555" stroke-width="2" marker-end="url(#a)"/>
<path d="M690,217 L730,217" fill="none" stroke="#555" stroke-width="2" marker-end="url(#a)"/>
</svg>