<svg xmlns="http://www.w3.org/2000/svg" viewBox="0 0 880 320" font-family="'Red Hat Text', system-ui, sans-serif" role="img">
<defs><marker id="a" viewBox="0 0 10 10" refX="8.5" refY="5" markerWidth="9" markerHeight="9" orient="auto-start-reverse"><path d="M0,0 L10,5 L0,10 z" fill="#555"/></marker><marker id="am" viewBox="0 0 10 10" refX="8.5" refY="5" markerWidth="9" markerHeight="9" orient="auto-start-reverse"><path d="M0,0 L10,5 L0,10 z" fill="#b8650a"/></marker></defs>
<rect x="230" y="78" width="380" height="176" rx="12" fill="#fafafa" stroke="#ddd"/>
<text x="242" y="98" font-size="12" font-weight="700" fill="#888">nginx worker (container)</text>
<rect x="40" y="128" width="150" height="60" rx="9" fill="#eef4fb" stroke="#2f6db5" stroke-width="2"/>
<text x="115.0" y="156.0" font-size="13.5" font-weight="700" fill="#111111" text-anchor="middle">client</text>
<text x="115.0" y="173.0" font-size="11.5" fill="#555555" text-anchor="middle">HTTP requests</text>
<rect x="250" y="118" width="172" height="52" rx="9" fill="#fff8ef" stroke="#e8870c" stroke-width="2"/>
<text x="336.0" y="142.0" font-size="13.5" font-weight="700" fill="#111111" text-anchor="middle">uprobe</text>
<text x="336.0" y="159.0" font-size="11.5" fill="#555555" text-anchor="middle">ngx_http_process_request</text>
<rect x="250" y="186" width="172" height="52" rx="9" fill="#fff8ef" stroke="#e8870c" stroke-width="2"/>
<text x="336.0" y="210.0" font-size="13.5" font-weight="700" fill="#111111" text-anchor="middle">uprobe</text>
<text x="336.0" y="227.0" font-size="11.5" fill="#555555" text-anchor="middle">ngx_http_finalize_request</text>
<rect x="446" y="150" width="140" height="56" rx="9" fill="#ffffff" stroke="#111111" stroke-width="2"/>
<text x="516.0" y="176.0" font-size="13.5" font-weight="700" fill="#111111" text-anchor="middle">handle request</text>
<text x="516.0" y="193.0" font-size="11.5" fill="#555555" text-anchor="middle">(work)</text>
<rect x="650" y="98" width="200" height="52" rx="9" fill="#ffffff" stroke="#111111" stroke-width="2"/>
<text x="750.0" y="122.0" font-size="13.5" font-weight="700" fill="#111111" text-anchor="middle">STARTS[r] = ts</text>
<text x="750.0" y="139.0" font-size="11.5" fill="#555555" text-anchor="middle">keyed by request ptr</text>
<rect x="650" y="188" width="200" height="52" rx="9" fill="#ffffff" stroke="#999999" stroke-width="1.5"/>
<text x="750.0" y="212.0" font-size="13.5" font-weight="700" fill="#111111" text-anchor="middle">latency histogram</text>
<text x="750.0" y="229.0" font-size="11.5" fill="#555555" text-anchor="middle">→ Grafana</text>
<path d="M190,158 L250,150" fill="none" stroke="#555" stroke-width="2" marker-end="url(#a)"/>
<text x="220.0" y="146.0" font-size="11" fill="#ffffff" stroke="#ffffff" stroke-width="3" paint-order="stroke" text-anchor="middle">request</text>
<text x="220.0" y="146.0" font-size="11" fill="#555" text-anchor="middle">request</text>
<path d="M422,140 L650,122" fill="none" stroke="#b8650a" stroke-width="2" marker-end="url(#am)"/>
<text x="536.0" y="125.0" font-size="11" fill="#ffffff" stroke="#ffffff" stroke-width="3" paint-order="stroke" text-anchor="middle">record start</text>
<text x="536.0" y="125.0" font-size="11" fill="#b8650a" text-anchor="middle">record start</text>
<path d="M422,212 L650,212" fill="none" stroke="#555" stroke-width="2" marker-end="url(#a)"/>
<text x="536.0" y="204.0" font-size="11" fill="#ffffff" stroke="#ffffff" stroke-width="3" paint-order="stroke" text-anchor="middle">now − start → bucket</text>
<text x="536.0" y="204.0" font-size="11" fill="#555" text-anchor="middle">now − start → bucket</text>
<text x="440" y="34" font-size="11" fill="#b8650a" text-anchor="middle" font-weight="700">measure per-request latency inside a real server, keyed by the request object — no app changes</text>
<text x="440" y="304" font-size="11" fill="#888" text-anchor="middle">attach to the binary inside the container (via the worker&#x27;s pid/root); the symbols must be present</text>
</svg>