<svg xmlns="http://www.w3.org/2000/svg" viewBox="0 0 880 340" font-family="'Red Hat Text', system-ui, sans-serif" role="img">
<defs><marker id="a" viewBox="0 0 10 10" refX="8.5" refY="5" markerWidth="9" markerHeight="9" orient="auto-start-reverse"><path d="M0,0 L10,5 L0,10 z" fill="#555"/></marker><marker id="am" viewBox="0 0 10 10" refX="8.5" refY="5" markerWidth="9" markerHeight="9" orient="auto-start-reverse"><path d="M0,0 L10,5 L0,10 z" fill="#b8650a"/></marker></defs>
<rect x="20" y="66" width="840" height="92" rx="12" fill="#f4f4f4" stroke="#ddd"/>
<text x="32" y="86" font-size="12" font-weight="700" fill="#888">kernel space</text>
<rect x="20" y="182" width="840" height="138" rx="12" fill="#fafafa" stroke="#ddd"/>
<text x="32" y="202" font-size="12" font-weight="700" fill="#888">user space</text>
<rect x="60" y="104" width="230" height="44" rx="9" fill="#f4f4f4" stroke="#888888" stroke-width="1.5"/>
<text x="175.0" y="131.5" font-size="13.5" font-weight="700" fill="#111111" text-anchor="middle">kprobes / sockets — TCP, recv/send</text>
<rect x="320" y="104" width="250" height="44" rx="9" fill="#f4f4f4" stroke="#888888" stroke-width="1.5"/>
<text x="445.0" y="131.5" font-size="13.5" font-weight="700" fill="#111111" text-anchor="middle">uprobes — TLS/libssl, runtimes</text>
<rect x="60" y="216" width="380" height="46" rx="9" fill="#fff8ef" stroke="#e8870c" stroke-width="2"/>
<text x="250.0" y="237.0" font-size="13.5" font-weight="700" fill="#111111" text-anchor="middle">OBI agent — maps raw events to</text>
<text x="250.0" y="254.0" font-size="11.5" fill="#555555" text-anchor="middle">OTel semantic conventions (RED + spans)</text>
<rect x="60" y="272" width="380" height="38" rx="9" fill="#ffffff" stroke="#111111" stroke-width="2"/>
<text x="250.0" y="296.5" font-size="13.5" font-weight="700" fill="#111111" text-anchor="middle">OpenTelemetry Collector</text>
<rect x="470" y="216" width="350" height="94" rx="9" fill="#ffffff" stroke="#999999" stroke-width="1.5"/>
<text x="645.0" y="253.5" font-size="13.5" font-weight="700" fill="#111111" text-anchor="middle">traces → Tempo</text>
<text x="645.0" y="270.5" font-size="11.5" fill="#555555" text-anchor="middle">metrics → Prometheus</text>
<text x="645.0" y="285.5" font-size="11.5" fill="#555555" text-anchor="middle">logs → Loki</text>
<path d="M170,148 L190,216" fill="none" stroke="#b8650a" stroke-width="2" marker-end="url(#am)"/>
<path d="M420,148 L360,216" fill="none" stroke="#b8650a" stroke-width="2" marker-end="url(#am)"/>
<path d="M250,262 L250,272" fill="none" stroke="#555" stroke-width="2" marker-end="url(#a)"/>
<path d="M440,239 L470,239" fill="none" stroke="#b8650a" stroke-width="2" marker-end="url(#am)"/>
<text x="455.0" y="233.0" font-size="11" fill="#ffffff" stroke="#ffffff" stroke-width="3" paint-order="stroke" text-anchor="middle">OTLP</text>
<text x="455.0" y="233.0" font-size="11" fill="#b8650a" text-anchor="middle">OTLP</text>
<text x="440" y="30" font-size="11" fill="#b8650a" text-anchor="middle" font-weight="700">OBI: zero-code auto-instrumentation — eBPF probes become OTel signals, no app changes</text>
<text x="440" y="332" font-size="11" fill="#888" text-anchor="middle">Java, Python, Go, Rust… language-agnostic, because it reads the wire, not your symbols</text>
</svg>