<svg xmlns="http://www.w3.org/2000/svg" viewBox="0 0 900 300" font-family="'Red Hat Text', system-ui, sans-serif" role="img">
<defs><marker id="a" viewBox="0 0 10 10" refX="8.5" refY="5" markerWidth="9" markerHeight="9" orient="auto-start-reverse"><path d="M0,0 L10,5 L0,10 z" fill="#555"/></marker><marker id="am" viewBox="0 0 10 10" refX="8.5" refY="5" markerWidth="9" markerHeight="9" orient="auto-start-reverse"><path d="M0,0 L10,5 L0,10 z" fill="#b8650a"/></marker></defs>
<rect x="20" y="40" width="470" height="240" rx="12" fill="#f7f7f7" stroke="#ddd"/>
<text x="32" y="60" font-size="12" font-weight="700" fill="#888">target VM</text>
<rect x="510" y="40" width="370" height="240" rx="12" fill="#eef4fb" stroke="#ddd"/>
<text x="522" y="60" font-size="12" font-weight="700" fill="#888">host (laptop)</text>
<rect x="40" y="80" width="180" height="60" rx="9" fill="#fff8ef" stroke="#e8870c" stroke-width="2"/>
<text x="130.0" y="108.0" font-size="13.5" font-weight="700" fill="#111111" text-anchor="middle">eBPF program</text>
<text x="130.0" y="125.0" font-size="11.5" fill="#555555" text-anchor="middle">counts + events</text>
<rect x="40" y="175" width="180" height="55" rx="9" fill="#f4f4f4" stroke="#888888" stroke-width="1.5"/>
<text x="130.0" y="200.5" font-size="13.5" font-weight="700" fill="#111111" text-anchor="middle">maps</text>
<text x="130.0" y="217.5" font-size="11.5" fill="#555555" text-anchor="middle">HashMap / RingBuf</text>
<rect x="250" y="110" width="220" height="85" rx="9" fill="#ffffff" stroke="#111111" stroke-width="2"/>
<text x="360.0" y="143.0" font-size="13.5" font-weight="700" fill="#111111" text-anchor="middle">Aya loader (binary)</text>
<text x="360.0" y="160.0" font-size="11.5" fill="#555555" text-anchor="middle">reads maps,</text>
<text x="360.0" y="175.0" font-size="11.5" fill="#555555" text-anchor="middle">builds OTLP metrics</text>
<rect x="530" y="80" width="150" height="70" rx="9" fill="#ffffff" stroke="#111111" stroke-width="2"/>
<text x="605.0" y="113.0" font-size="13.5" font-weight="700" fill="#111111" text-anchor="middle">otel-lgtm</text>
<text x="605.0" y="130.0" font-size="11.5" fill="#555555" text-anchor="middle">OTLP :4318</text>
<rect x="710" y="80" width="150" height="70" rx="9" fill="#eef4fb" stroke="#2f6db5" stroke-width="2"/>
<text x="785.0" y="113.0" font-size="13.5" font-weight="700" fill="#111111" text-anchor="middle">Grafana :3000</text>
<text x="785.0" y="130.0" font-size="11.5" fill="#555555" text-anchor="middle">dashboards</text>
<rect x="530" y="190" width="330" height="50" rx="9" fill="#ffffff" stroke="#999999" stroke-width="1.5"/>
<text x="695.0" y="220.5" font-size="13.5" font-weight="700" fill="#111111" text-anchor="middle">Tempo · Mimir · Loki · Pyroscope</text>
<path d="M220,110 L250,140" fill="none" stroke="#555" stroke-width="2" marker-end="url(#a)"/>
<text x="205.0" y="123.0" font-size="11" fill="#555">read</text>
<path d="M220,200 L250,175" fill="none" stroke="#555" stroke-width="2" marker-end="url(#a)"/>
<path d="M470,150 L530,115" fill="none" stroke="#b8650a" stroke-width="2" marker-end="url(#am)"/>
<text x="470.0" y="128.5" font-size="11" fill="#b8650a">OTLP/HTTP</text>
<path d="M680,115 L710,115" fill="none" stroke="#555" stroke-width="2" marker-end="url(#a)"/>
<path d="M605,150 L605,190" fill="none" stroke="#555" stroke-width="2" marker-end="url(#a)"/>
</svg>