<svg xmlns="http://www.w3.org/2000/svg" viewBox="0 0 880 340" font-family="'Red Hat Text', system-ui, sans-serif" role="img">
<defs><marker id="a" viewBox="0 0 10 10" refX="8.5" refY="5" markerWidth="9" markerHeight="9" orient="auto-start-reverse"><path d="M0,0 L10,5 L0,10 z" fill="#555"/></marker><marker id="am" viewBox="0 0 10 10" refX="8.5" refY="5" markerWidth="9" markerHeight="9" orient="auto-start-reverse"><path d="M0,0 L10,5 L0,10 z" fill="#b8650a"/></marker></defs>
<rect x="30" y="128" width="165" height="56" rx="9" fill="#f4f4f4" stroke="#888888" stroke-width="1.5"/>
<text x="112.5" y="154.0" font-size="13.5" font-weight="700" fill="#111111" text-anchor="middle">openat probe</text>
<text x="112.5" y="171.0" font-size="11.5" fill="#555555" text-anchor="middle">(opensnoop)</text>
<rect x="225" y="128" width="140" height="56" rx="9" fill="#ffffff" stroke="#999999" stroke-width="1.5"/>
<text x="295.0" y="154.0" font-size="13.5" font-weight="700" fill="#111111" text-anchor="middle">per-CPU map</text>
<text x="295.0" y="171.0" font-size="11.5" fill="#555555" text-anchor="middle">count · latency</text>
<rect x="395" y="118" width="175" height="78" rx="9" fill="#eef4fb" stroke="#2f6db5" stroke-width="2"/>
<text x="482.5" y="155.0" font-size="13.5" font-weight="700" fill="#111111" text-anchor="middle">user-space loader</text>
<text x="482.5" y="172.0" font-size="11.5" fill="#555555" text-anchor="middle">reads the map</text>
<rect x="615" y="58" width="235" height="56" rx="9" fill="#ffffff" stroke="#111111" stroke-width="2"/>
<text x="732.5" y="84.0" font-size="13.5" font-weight="700" fill="#111111" text-anchor="middle">your terminal</text>
<text x="732.5" y="101.0" font-size="11.5" fill="#555555" text-anchor="middle">live table — what you “watch”</text>
<rect x="615" y="138" width="235" height="50" rx="9" fill="#fff8ef" stroke="#e8870c" stroke-width="2"/>
<text x="732.5" y="168.5" font-size="13.5" font-weight="700" fill="#111111" text-anchor="middle">otel-lgtm  ·  OTLP :4318</text>
<rect x="615" y="212" width="235" height="56" rx="9" fill="#ffffff" stroke="#111111" stroke-width="2"/>
<text x="732.5" y="238.0" font-size="13.5" font-weight="700" fill="#111111" text-anchor="middle">Grafana :3000</text>
<text x="732.5" y="255.0" font-size="11.5" fill="#555555" text-anchor="middle">ebpf_* metrics over time</text>
<path d="M195,156 L225,156" fill="none" stroke="#555" stroke-width="2" marker-end="url(#a)"/>
<path d="M365,156 L395,156" fill="none" stroke="#555" stroke-width="2" marker-end="url(#a)"/>
<path d="M570,140 L615,92" fill="none" stroke="#555" stroke-width="2" marker-end="url(#a)"/>
<text x="596.5" y="112.0" font-size="11" fill="#ffffff" stroke="#ffffff" stroke-width="3" paint-order="stroke" text-anchor="middle">prints</text>
<text x="596.5" y="112.0" font-size="11" fill="#555" text-anchor="middle">prints</text>
<path d="M570,168 L615,163" fill="none" stroke="#b8650a" stroke-width="2" marker-end="url(#am)"/>
<text x="592.5" y="181.5" font-size="11" fill="#ffffff" stroke="#ffffff" stroke-width="3" paint-order="stroke" text-anchor="middle">OTLP push</text>
<text x="592.5" y="181.5" font-size="11" fill="#b8650a" text-anchor="middle">OTLP push</text>
<path d="M732,188 L732,212" fill="none" stroke="#555" stroke-width="2" marker-end="url(#a)"/>
<text x="732.0" y="198.0" font-size="11" fill="#ffffff" stroke="#ffffff" stroke-width="3" paint-order="stroke" text-anchor="middle">store + chart</text>
<text x="732.0" y="198.0" font-size="11" fill="#555" text-anchor="middle">store + chart</text>
<text x="440" y="32" font-size="11" fill="#b8650a" text-anchor="middle" font-weight="700">two faces of output: a live table in your terminal, and ebpf_* metrics you chart in Grafana</text>
<text x="440" y="322" font-size="11" fill="#888" text-anchor="middle">the program runs in the guest; the stack runs on your laptop — the loader pushes out via OTLP</text>
</svg>