<svg xmlns="http://www.w3.org/2000/svg" viewBox="0 0 820 300" font-family="'Red Hat Text', system-ui, sans-serif" role="img">
<defs><marker id="a" viewBox="0 0 10 10" refX="8.5" refY="5" markerWidth="9" markerHeight="9" orient="auto-start-reverse"><path d="M0,0 L10,5 L0,10 z" fill="#555"/></marker><marker id="am" viewBox="0 0 10 10" refX="8.5" refY="5" markerWidth="9" markerHeight="9" orient="auto-start-reverse"><path d="M0,0 L10,5 L0,10 z" fill="#b8650a"/></marker></defs>
<rect x="20" y="40" width="780" height="120" rx="12" fill="#f4f4f4" stroke="#ddd"/>
<text x="32" y="60" font-size="12" font-weight="700" fill="#888">kernel</text>
<rect x="20" y="185" width="780" height="95" rx="12" fill="#eef4fb" stroke="#ddd"/>
<text x="32" y="205" font-size="12" font-weight="700" fill="#888">user space</text>
<rect x="40" y="75" width="200" height="60" rx="9" fill="#fff8ef" stroke="#e8870c" stroke-width="2"/>
<text x="140.0" y="103.0" font-size="13.5" font-weight="700" fill="#111111" text-anchor="middle">eBPF program</text>
<text x="140.0" y="120.0" font-size="11.5" fill="#555555" text-anchor="middle">on each event</text>
<rect x="320" y="75" width="260" height="60" rx="9" fill="#ffffff" stroke="#111111" stroke-width="2"/>
<text x="450.0" y="103.0" font-size="13.5" font-weight="700" fill="#111111" text-anchor="middle">RingBuf map</text>
<text x="450.0" y="120.0" font-size="11.5" fill="#555555" text-anchor="middle">reserve() → write → submit()</text>
<rect x="320" y="205" width="260" height="60" rx="9" fill="#eef4fb" stroke="#2f6db5" stroke-width="2"/>
<text x="450.0" y="233.0" font-size="13.5" font-weight="700" fill="#111111" text-anchor="middle">loader: while ring.next()</text>
<text x="450.0" y="250.0" font-size="11.5" fill="#555555" text-anchor="middle">decode bytes → struct</text>
<rect x="620" y="205" width="160" height="60" rx="9" fill="#ffffff" stroke="#111111" stroke-width="2"/>
<text x="700.0" y="233.0" font-size="13.5" font-weight="700" fill="#111111" text-anchor="middle">print / OTLP</text>
<text x="700.0" y="250.0" font-size="11.5" fill="#555555" text-anchor="middle">→ Grafana</text>
<path d="M240,105 L320,105" fill="none" stroke="#555" stroke-width="2" marker-end="url(#a)"/>
<text x="286.0" y="99.0" font-size="11" fill="#555">submit</text>
<path d="M450,135 L450,205" fill="none" stroke="#b8650a" stroke-width="2" marker-end="url(#am)"/>
<text x="458.0" y="170.0" font-size="11" fill="#b8650a">poll</text>
<path d="M580,235 L620,235" fill="none" stroke="#555" stroke-width="2" marker-end="url(#a)"/>
</svg>