<svg xmlns="http://www.w3.org/2000/svg" viewBox="0 0 880 280" font-family="'Red Hat Text', system-ui, sans-serif" role="img">
<defs><marker id="a" viewBox="0 0 10 10" refX="9" refY="5" markerWidth="7" markerHeight="7" orient="auto-start-reverse"><path d="M0,0 L10,5 L0,10 z" fill="#555"/></marker><marker id="am" viewBox="0 0 10 10" refX="9" refY="5" markerWidth="7" markerHeight="7" orient="auto-start-reverse"><path d="M0,0 L10,5 L0,10 z" fill="#b8650a"/></marker></defs>
<path d="M220,142 L260,142" fill="none" stroke="#555" stroke-width="2" marker-end="url(#a)"/>
<path d="M450,142 L500,142" fill="none" stroke="#555" stroke-width="2" marker-end="url(#a)"/>
<text x="447.0" y="136.0" font-size="11" fill="#555">the wait</text>
<path d="M690,142 L730,142" fill="none" stroke="#555" stroke-width="2" marker-end="url(#a)"/>
<rect x="40" y="110" width="180" height="64" rx="9" fill="#fff8ef" stroke="#e8870c" stroke-width="2"/>
<text x="130.0" y="140.0" font-size="13.5" font-weight="700" fill="#111111" text-anchor="middle">sched_wakeup</text>
<text x="130.0" y="157.0" font-size="11.5" fill="#555555" text-anchor="middle">runnable — stamp t0</text>
<rect x="260" y="110" width="190" height="64" rx="9" fill="#ffffff" stroke="#111111" stroke-width="2"/>
<text x="355.0" y="140.0" font-size="13.5" font-weight="700" fill="#111111" text-anchor="middle">on the run queue</text>
<text x="355.0" y="157.0" font-size="11.5" fill="#555555" text-anchor="middle">waiting for a CPU</text>
<rect x="500" y="110" width="190" height="64" rx="9" fill="#fff8ef" stroke="#e8870c" stroke-width="2"/>
<text x="595.0" y="140.0" font-size="13.5" font-weight="700" fill="#111111" text-anchor="middle">sched_switch (in)</text>
<text x="595.0" y="157.0" font-size="11.5" fill="#555555" text-anchor="middle">Δ = now − t0</text>
<rect x="730" y="110" width="130" height="64" rx="9" fill="#eef4fb" stroke="#2f6db5" stroke-width="2"/>
<text x="795.0" y="140.0" font-size="13.5" font-weight="700" fill="#111111" text-anchor="middle">log2 histogram</text>
<text x="795.0" y="157.0" font-size="11.5" fill="#555555" text-anchor="middle">Array map</text>
<text x="440" y="40" font-size="11" fill="#b8650a" text-anchor="middle" font-weight="700">run-queue latency = time runnable but not running</text>
<text x="440" y="230" font-size="11" fill="#888" text-anchor="middle">aggregate in the kernel (hot path); export p50 / p90 / p99</text>
</svg>