<svg xmlns="http://www.w3.org/2000/svg" viewBox="0 0 880 320" font-family="'Red Hat Text', system-ui, sans-serif" role="img">
<defs><marker id="a" viewBox="0 0 10 10" refX="8.5" refY="5" markerWidth="9" markerHeight="9" orient="auto-start-reverse"><path d="M0,0 L10,5 L0,10 z" fill="#555"/></marker><marker id="am" viewBox="0 0 10 10" refX="8.5" refY="5" markerWidth="9" markerHeight="9" orient="auto-start-reverse"><path d="M0,0 L10,5 L0,10 z" fill="#b8650a"/></marker></defs>
<rect x="460" y="64" width="392" height="96" rx="12" fill="#fff3e0" stroke="#ddd"/>
<text x="472" y="84" font-size="12" font-weight="700" fill="#888">primary nest — warm, high frequency</text>
<rect x="460" y="182" width="392" height="84" rx="12" fill="#f4f4f4" stroke="#ddd"/>
<text x="472" y="202" font-size="12" font-weight="700" fill="#888">reserve — idle / demoted</text>
<rect x="40" y="128" width="130" height="60" rx="9" fill="#eef4fb" stroke="#2f6db5" stroke-width="2"/>
<text x="105.0" y="163.5" font-size="13.5" font-weight="700" fill="#111111" text-anchor="middle">tasks</text>
<rect x="210" y="110" width="210" height="96" rx="9" fill="#fff8ef" stroke="#e8870c" stroke-width="2"/>
<text x="315.0" y="156.0" font-size="13.5" font-weight="700" fill="#111111" text-anchor="middle">scx_nest policy</text>
<text x="315.0" y="173.0" font-size="11.5" fill="#555555" text-anchor="middle">keep work on warm cores</text>
<rect x="480" y="104" width="108" height="46" rx="9" fill="#f4f4f4" stroke="#888888" stroke-width="1.5"/>
<text x="534.0" y="125.0" font-size="13.5" font-weight="700" fill="#111111" text-anchor="middle">CPU0</text>
<text x="534.0" y="142.0" font-size="11.5" fill="#555555" text-anchor="middle">busy</text>
<rect x="598" y="104" width="108" height="46" rx="9" fill="#f4f4f4" stroke="#888888" stroke-width="1.5"/>
<text x="652.0" y="125.0" font-size="13.5" font-weight="700" fill="#111111" text-anchor="middle">CPU1</text>
<text x="652.0" y="142.0" font-size="11.5" fill="#555555" text-anchor="middle">busy</text>
<rect x="716" y="104" width="118" height="46" rx="9" fill="#f4f4f4" stroke="#888888" stroke-width="1.5"/>
<text x="775.0" y="125.0" font-size="13.5" font-weight="700" fill="#111111" text-anchor="middle">CPU2</text>
<text x="775.0" y="142.0" font-size="11.5" fill="#555555" text-anchor="middle">busy</text>
<rect x="480" y="214" width="170" height="40" rx="9" fill="#ffffff" stroke="#999999" stroke-width="1.5" stroke-dasharray="6 4"/>
<text x="565.0" y="239.5" font-size="13.5" font-weight="700" fill="#111111" text-anchor="middle">CPU3 — idle</text>
<rect x="662" y="214" width="172" height="40" rx="9" fill="#ffffff" stroke="#999999" stroke-width="1.5" stroke-dasharray="6 4"/>
<text x="748.0" y="239.5" font-size="13.5" font-weight="700" fill="#111111" text-anchor="middle">CPU4 — idle</text>
<path d="M170,158 L210,158" fill="none" stroke="#555" stroke-width="2" marker-end="url(#a)"/>
<text x="190.0" y="150.0" font-size="11" fill="#ffffff" stroke="#ffffff" stroke-width="3" paint-order="stroke" text-anchor="middle">runnable</text>
<text x="190.0" y="150.0" font-size="11" fill="#555" text-anchor="middle">runnable</text>
<path d="M420,150 L460,118" fill="none" stroke="#b8650a" stroke-width="2" marker-end="url(#am)"/>
<text x="442.0" y="128.0" font-size="11" fill="#ffffff" stroke="#ffffff" stroke-width="3" paint-order="stroke" text-anchor="middle">prefer the nest</text>
<text x="442.0" y="128.0" font-size="11" fill="#b8650a" text-anchor="middle">prefer the nest</text>
<text x="440" y="34" font-size="11" fill="#b8650a" text-anchor="middle" font-weight="700">concentrate work on a few warm cores (high frequency, hot caches) rather than spreading it thin</text>
<text x="440" y="304" font-size="11" fill="#888" text-anchor="middle">cores idle too long are demoted out of the nest; the nest grows under load</text>
</svg>