<svg xmlns="http://www.w3.org/2000/svg" viewBox="0 0 900 430" font-family="'Red Hat Text', system-ui, sans-serif" role="img">
<defs><marker id="a" viewBox="0 0 10 10" refX="8.5" refY="5" markerWidth="9" markerHeight="9" orient="auto-start-reverse"><path d="M0,0 L10,5 L0,10 z" fill="#555"/></marker><marker id="am" viewBox="0 0 10 10" refX="8.5" refY="5" markerWidth="9" markerHeight="9" orient="auto-start-reverse"><path d="M0,0 L10,5 L0,10 z" fill="#b8650a"/></marker></defs>
<rect x="34" y="58" width="168" height="44" rx="9" fill="#eef4fb" stroke="#2f6db5" stroke-width="2"/>
<text x="118.0" y="85.5" font-size="13.5" font-weight="700" fill="#111111" text-anchor="middle">Quarkus (Podman)</text>
<rect x="34" y="116" width="168" height="44" rx="9" fill="#eef4fb" stroke="#2f6db5" stroke-width="2"/>
<text x="118.0" y="143.5" font-size="13.5" font-weight="700" fill="#111111" text-anchor="middle">FastAPI (Podman)</text>
<rect x="34" y="174" width="168" height="44" rx="9" fill="#f4f4f4" stroke="#888888" stroke-width="1.5"/>
<text x="118.0" y="201.5" font-size="13.5" font-weight="700" fill="#111111" text-anchor="middle">eBPF / Aya</text>
<rect x="262" y="96" width="190" height="86" rx="9" fill="#fff8ef" stroke="#e8870c" stroke-width="2"/>
<text x="357.0" y="137.0" font-size="13.5" font-weight="700" fill="#111111" text-anchor="middle">OTel Collector</text>
<text x="357.0" y="154.0" font-size="11.5" fill="#555555" text-anchor="middle">OTLP 4317 / 4318</text>
<rect x="520" y="52" width="348" height="46" rx="9" fill="#ffffff" stroke="#999999" stroke-width="1.5"/>
<text x="694.0" y="80.5" font-size="13.5" font-weight="700" fill="#111111" text-anchor="middle">Prometheus — metrics   (Mimir in prod)</text>
<rect x="520" y="110" width="348" height="46" rx="9" fill="#ffffff" stroke="#999999" stroke-width="1.5"/>
<text x="694.0" y="138.5" font-size="13.5" font-weight="700" fill="#111111" text-anchor="middle">Tempo — traces / spans</text>
<rect x="520" y="168" width="348" height="46" rx="9" fill="#ffffff" stroke="#999999" stroke-width="1.5"/>
<text x="694.0" y="196.5" font-size="13.5" font-weight="700" fill="#111111" text-anchor="middle">Loki — logs   (+ Pyroscope: profiles)</text>
<rect x="150" y="322" width="718" height="74" rx="9" fill="#ffffff" stroke="#111111" stroke-width="2"/>
<text x="509.0" y="357.0" font-size="13.5" font-weight="700" fill="#111111" text-anchor="middle">Grafana — one trace_id links every signal</text>
<text x="509.0" y="374.0" font-size="11.5" fill="#555555" text-anchor="middle">exemplars (metric→trace) · tracesToLogs · derivedFields (log→trace) · traces→profiles</text>
<path d="M202,80 L262,120" fill="none" stroke="#555" stroke-width="2" marker-end="url(#a)"/>
<text x="230.0" y="94.0" font-size="11" fill="#ffffff" stroke="#ffffff" stroke-width="3" paint-order="stroke" text-anchor="middle">OTLP</text>
<text x="230.0" y="94.0" font-size="11" fill="#555" text-anchor="middle">OTLP</text>
<path d="M202,138 L262,139" fill="none" stroke="#555" stroke-width="2" marker-end="url(#a)"/>
<path d="M202,196 L262,158" fill="none" stroke="#555" stroke-width="2" marker-end="url(#a)"/>
<path d="M452,120 L520,75" fill="none" stroke="#b8650a" stroke-width="2" marker-end="url(#am)"/>
<path d="M452,135 L520,133" fill="none" stroke="#b8650a" stroke-width="2" marker-end="url(#am)"/>
<path d="M452,150 L520,191" fill="none" stroke="#b8650a" stroke-width="2" marker-end="url(#am)"/>
<path d="M694,214 L540,322" fill="none" stroke="#b8650a" stroke-width="2" stroke-dasharray="5 4" marker-end="url(#am)"/>
<text x="657.0" y="272.0" font-size="11" fill="#ffffff" stroke="#ffffff" stroke-width="3" paint-order="stroke" text-anchor="middle">correlate by trace_id</text>
<text x="657.0" y="272.0" font-size="11" fill="#b8650a" text-anchor="middle">correlate by trace_id</text>
<text x="450" y="34" font-size="11" fill="#b8650a" text-anchor="middle" font-weight="700">every signal carries the trace_id — Grafana turns four stores into one investigation</text>
<text x="450" y="416" font-size="11" fill="#888" text-anchor="middle">the lab&#x27;s otel-lgtm uses Prometheus; Mimir is the Prometheus-compatible production swap (same PromQL, same correlation)</text>
</svg>