<svg xmlns="http://www.w3.org/2000/svg" viewBox="0 0 870 310" font-family="'Red Hat Text', system-ui, sans-serif" role="img">
<defs><marker id="a" viewBox="0 0 10 10" refX="9" refY="5" markerWidth="7" markerHeight="7" orient="auto-start-reverse"><path d="M0,0 L10,5 L0,10 z" fill="#555"/></marker><marker id="am" viewBox="0 0 10 10" refX="9" refY="5" markerWidth="7" markerHeight="7" orient="auto-start-reverse"><path d="M0,0 L10,5 L0,10 z" fill="#b8650a"/></marker></defs>
<path d="M140,124 L140,185" fill="none" stroke="#555" stroke-width="2" marker-end="url(#a)"/>
<text x="146.0" y="154.5" font-size="11" fill="#555">ptr</text>
<path d="M240,220 L320,220" fill="none" stroke="#b8650a" stroke-width="2" marker-end="url(#am)"/>
<text x="130.0" y="212.0" font-size="11" fill="#b8650a">bpf_probe_read_user</text>
<path d="M440,124 L440,185" fill="none" stroke="#555" stroke-width="2" stroke-dasharray="5 4" marker-end="url(#a)"/>
<text x="446.0" y="154.5" font-size="11" fill="#555">same layout?</text>
<path d="M620,92 L560,92" fill="none" stroke="#555" stroke-width="2" marker-end="url(#a)"/>
<text x="560.0" y="86.0" font-size="11" fill="#555">describes</text>
<rect x="40" y="60" width="200" height="64" rx="9" fill="#ffffff" stroke="#111111" stroke-width="2"/>
<text x="140.0" y="90.0" font-size="13.5" font-weight="700" fill="#111111" text-anchor="middle">process_order(const Order*)</text>
<text x="140.0" y="107.0" font-size="11.5" fill="#555555" text-anchor="middle">arg0 = pointer</text>
<rect x="40" y="185" width="200" height="70" rx="9" fill="#fff8ef" stroke="#e8870c" stroke-width="2"/>
<text x="140.0" y="218.0" font-size="13.5" font-weight="700" fill="#111111" text-anchor="middle">eBPF uprobe</text>
<text x="140.0" y="235.0" font-size="11.5" fill="#555555" text-anchor="middle">arg(0) → *const Order</text>
<rect x="320" y="185" width="240" height="70" rx="9" fill="#ffffff" stroke="#111111" stroke-width="2"/>
<text x="440.0" y="218.0" font-size="13.5" font-weight="700" fill="#111111" text-anchor="middle">#[repr(C)] Order mirror</text>
<text x="440.0" y="235.0" font-size="11.5" fill="#555555" text-anchor="middle">id · amount · status (must match!)</text>
<rect x="320" y="60" width="240" height="64" rx="9" fill="#eef4fb" stroke="#2f6db5" stroke-width="2"/>
<text x="440.0" y="90.0" font-size="13.5" font-weight="700" fill="#111111" text-anchor="middle">Order in process memory</text>
<text x="440.0" y="107.0" font-size="11.5" fill="#555555" text-anchor="middle">id@0  amount@8  status@16</text>
<rect x="620" y="60" width="230" height="70" rx="9" fill="#ffffff" stroke="#999999" stroke-width="1.5"/>
<text x="735.0" y="93.0" font-size="13.5" font-weight="700" fill="#111111" text-anchor="middle">BTF (pahole -J / .note)</text>
<text x="735.0" y="110.0" font-size="11.5" fill="#555555" text-anchor="middle">recovers the field offsets</text>
<text x="430" y="295" font-size="11" fill="#888" text-anchor="middle">share the type when you own the code; recover it from BTF when you don&#x27;t</text>
</svg>