<svg xmlns="http://www.w3.org/2000/svg" viewBox="0 0 880 310" font-family="'Red Hat Text', system-ui, sans-serif" role="img">
<defs><marker id="a" viewBox="0 0 10 10" refX="8.5" refY="5" markerWidth="9" markerHeight="9" orient="auto-start-reverse"><path d="M0,0 L10,5 L0,10 z" fill="#555"/></marker><marker id="am" viewBox="0 0 10 10" refX="8.5" refY="5" markerWidth="9" markerHeight="9" orient="auto-start-reverse"><path d="M0,0 L10,5 L0,10 z" fill="#b8650a"/></marker></defs>
<rect x="34" y="74" width="160" height="50" rx="9" fill="#eef4fb" stroke="#2f6db5" stroke-width="2"/>
<text x="114.0" y="97.0" font-size="13.5" font-weight="700" fill="#111111" text-anchor="middle">user space</text>
<text x="114.0" y="114.0" font-size="11.5" fill="#555555" text-anchor="middle">libbpf / aya</text>
<rect x="250" y="74" width="210" height="50" rx="9" fill="#ffffff" stroke="#111111" stroke-width="2"/>
<text x="355.0" y="97.0" font-size="13.5" font-weight="700" fill="#111111" text-anchor="middle">many bpf() syscalls</text>
<text x="355.0" y="114.0" font-size="11.5" fill="#555555" text-anchor="middle">map create, prog load, …</text>
<rect x="540" y="70" width="200" height="58" rx="9" fill="#f4f4f4" stroke="#888888" stroke-width="1.5"/>
<text x="640.0" y="97.0" font-size="13.5" font-weight="700" fill="#111111" text-anchor="middle">maps + programs</text>
<text x="640.0" y="114.0" font-size="11.5" fill="#555555" text-anchor="middle">in the kernel</text>
<rect x="34" y="196" width="160" height="50" rx="9" fill="#eef4fb" stroke="#2f6db5" stroke-width="2"/>
<text x="114.0" y="226.5" font-size="13.5" font-weight="700" fill="#111111" text-anchor="middle">user space</text>
<rect x="250" y="188" width="210" height="66" rx="9" fill="#fff8ef" stroke="#e8870c" stroke-width="2"/>
<text x="355.0" y="211.5" font-size="13.5" font-weight="700" fill="#111111" text-anchor="middle">syscall program</text>
<text x="355.0" y="228.5" font-size="11.5" fill="#555555" text-anchor="middle">bpf_sys_bpf() ×N</text>
<text x="355.0" y="243.5" font-size="11.5" fill="#555555" text-anchor="middle">(runs in kernel)</text>
<rect x="540" y="192" width="200" height="58" rx="9" fill="#f4f4f4" stroke="#888888" stroke-width="1.5"/>
<text x="640.0" y="219.0" font-size="13.5" font-weight="700" fill="#111111" text-anchor="middle">the same maps</text>
<text x="640.0" y="236.0" font-size="11.5" fill="#555555" text-anchor="middle">+ programs</text>
<path d="M194,99 L250,99" fill="none" stroke="#555" stroke-width="2" marker-end="url(#a)"/>
<path d="M460,99 L540,99" fill="none" stroke="#555" stroke-width="2" marker-end="url(#a)"/>
<path d="M194,221 L250,221" fill="none" stroke="#555" stroke-width="2" marker-end="url(#a)"/>
<text x="222.0" y="213.0" font-size="11" fill="#ffffff" stroke="#ffffff" stroke-width="3" paint-order="stroke" text-anchor="middle">BPF_PROG_RUN (once)</text>
<text x="222.0" y="213.0" font-size="11" fill="#555" text-anchor="middle">BPF_PROG_RUN (once)</text>
<path d="M460,221 L540,221" fill="none" stroke="#b8650a" stroke-width="2" marker-end="url(#am)"/>
<text x="500.0" y="213.0" font-size="11" fill="#ffffff" stroke="#ffffff" stroke-width="3" paint-order="stroke" text-anchor="middle">bpf_sys_bpf</text>
<text x="500.0" y="213.0" font-size="11" fill="#b8650a" text-anchor="middle">bpf_sys_bpf</text>
<text x="440" y="30" font-size="11" fill="#b8650a" text-anchor="middle" font-weight="700">two ways to create BPF objects: many syscalls from user space, or one program that issues them itself</text>
<text x="150" y="150" font-size="13" fill="#6a6a6a" text-anchor="middle">the usual way</text>
<text x="150" y="272" font-size="13" fill="#b8650a" text-anchor="middle">loader program / light skeleton</text>
<text x="440" y="294" font-size="11" fill="#888" text-anchor="middle">running once replays the load sequence in-kernel — the basis of light skeletons and signed loading</text>
</svg>