<svg xmlns="http://www.w3.org/2000/svg" viewBox="0 0 880 300" font-family="'Red Hat Text', system-ui, sans-serif" role="img">
<defs><marker id="a" viewBox="0 0 10 10" refX="9" refY="5" markerWidth="7" markerHeight="7" orient="auto-start-reverse"><path d="M0,0 L10,5 L0,10 z" fill="#555"/></marker><marker id="am" viewBox="0 0 10 10" refX="9" refY="5" markerWidth="7" markerHeight="7" orient="auto-start-reverse"><path d="M0,0 L10,5 L0,10 z" fill="#b8650a"/></marker></defs>
<path d="M170,148 L210,148" fill="none" stroke="#555" stroke-width="2" marker-end="url(#a)"/>
<text x="164.0" y="144.0" font-size="11" fill="#555">connect</text>
<path d="M360,148 L400,148" fill="none" stroke="#555" stroke-width="2" marker-end="url(#a)"/>
<text x="352.0" y="144.0" font-size="11" fill="#555">SYN-ACK</text>
<path d="M510,135 L600,86" fill="none" stroke="#555" stroke-width="2" marker-end="url(#a)"/>
<text x="547.0" y="106.5" font-size="11" fill="#555">close</text>
<path d="M105,120 L640,200" fill="none" stroke="#555" stroke-width="2" stroke-dasharray="5 4" marker-end="url(#a)"/>
<text x="492.5" y="178.0" font-size="11" fill="#555">accept</text>
<rect x="40" y="120" width="130" height="56" rx="9" fill="#ffffff" stroke="#999999" stroke-width="1.5"/>
<text x="105.0" y="153.5" font-size="13.5" font-weight="700" fill="#111111" text-anchor="middle">CLOSE</text>
<rect x="210" y="120" width="150" height="56" rx="9" fill="#ffffff" stroke="#111111" stroke-width="2"/>
<text x="285.0" y="146.0" font-size="13.5" font-weight="700" fill="#111111" text-anchor="middle">SYN_SENT</text>
<text x="285.0" y="163.0" font-size="11.5" fill="#555555" text-anchor="middle">active open</text>
<rect x="400" y="120" width="150" height="56" rx="9" fill="#fff8ef" stroke="#e8870c" stroke-width="2"/>
<text x="475.0" y="146.0" font-size="13.5" font-weight="700" fill="#111111" text-anchor="middle">ESTABLISHED</text>
<text x="475.0" y="163.0" font-size="11.5" fill="#555555" text-anchor="middle">data flows</text>
<rect x="590" y="50" width="150" height="56" rx="9" fill="#ffffff" stroke="#111111" stroke-width="2"/>
<text x="665.0" y="76.0" font-size="13.5" font-weight="700" fill="#111111" text-anchor="middle">FIN_WAIT / etc.</text>
<text x="665.0" y="93.0" font-size="11.5" fill="#555555" text-anchor="middle">closing</text>
<rect x="590" y="200" width="150" height="56" rx="9" fill="#ffffff" stroke="#111111" stroke-width="2"/>
<text x="665.0" y="226.0" font-size="13.5" font-weight="700" fill="#111111" text-anchor="middle">LISTEN</text>
<text x="665.0" y="243.0" font-size="11.5" fill="#555555" text-anchor="middle">passive open</text>
<text x="440" y="40" font-size="11" fill="#b8650a" text-anchor="middle" font-weight="700">sock:inet_sock_set_state — one tracepoint, every transition, with addrs/ports</text>
<text x="440" y="285" font-size="11" fill="#888" text-anchor="middle">the stable, offset-light counterpart to Ch 27&#x27;s kprobes</text>
</svg>