<svg xmlns="http://www.w3.org/2000/svg" viewBox="0 0 880 300" font-family="'Red Hat Text', system-ui, sans-serif" role="img">
<defs><marker id="a" viewBox="0 0 10 10" refX="8.5" refY="5" markerWidth="9" markerHeight="9" orient="auto-start-reverse"><path d="M0,0 L10,5 L0,10 z" fill="#555"/></marker><marker id="am" viewBox="0 0 10 10" refX="8.5" refY="5" markerWidth="9" markerHeight="9" orient="auto-start-reverse"><path d="M0,0 L10,5 L0,10 z" fill="#b8650a"/></marker></defs>
<rect x="230" y="86" width="380" height="150" rx="12" fill="#fff8ef" stroke="#ddd"/>
<text x="242" y="106" font-size="12" font-weight="700" fill="#888">tcx chain (kernel-ordered, bpf_link)</text>
<rect x="40" y="134" width="150" height="58" rx="9" fill="#f4f4f4" stroke="#888888" stroke-width="1.5"/>
<text x="115.0" y="161.0" font-size="13.5" font-weight="700" fill="#111111" text-anchor="middle">ingress</text>
<text x="115.0" y="178.0" font-size="11.5" fill="#555555" text-anchor="middle">packet in</text>
<rect x="255" y="130" width="150" height="64" rx="9" fill="#fff8ef" stroke="#e8870c" stroke-width="2"/>
<text x="330.0" y="160.0" font-size="13.5" font-weight="700" fill="#111111" text-anchor="middle">prog A</text>
<text x="330.0" y="177.0" font-size="11.5" fill="#555555" text-anchor="middle">#[classifier]</text>
<rect x="425" y="130" width="150" height="64" rx="9" fill="#ffffff" stroke="#111111" stroke-width="2"/>
<text x="500.0" y="160.0" font-size="13.5" font-weight="700" fill="#111111" text-anchor="middle">prog B</text>
<text x="500.0" y="177.0" font-size="11.5" fill="#555555" text-anchor="middle">#[classifier]</text>
<rect x="660" y="134" width="170" height="58" rx="9" fill="#ffffff" stroke="#111111" stroke-width="2"/>
<text x="745.0" y="168.5" font-size="13.5" font-weight="700" fill="#111111" text-anchor="middle">network stack</text>
<path d="M190,162 L255,162" fill="none" stroke="#555" stroke-width="2" marker-end="url(#a)"/>
<text x="222.5" y="154.0" font-size="11" fill="#ffffff" stroke="#ffffff" stroke-width="3" paint-order="stroke" text-anchor="middle">in</text>
<text x="222.5" y="154.0" font-size="11" fill="#555" text-anchor="middle">in</text>
<path d="M405,162 L425,162" fill="none" stroke="#555" stroke-width="2" marker-end="url(#a)"/>
<text x="415.0" y="152.0" font-size="11" fill="#ffffff" stroke="#ffffff" stroke-width="3" paint-order="stroke" text-anchor="middle">order</text>
<text x="415.0" y="152.0" font-size="11" fill="#555" text-anchor="middle">order</text>
<path d="M575,162 L660,162" fill="none" stroke="#555" stroke-width="2" marker-end="url(#a)"/>
<text x="617.5" y="154.0" font-size="11" fill="#ffffff" stroke="#ffffff" stroke-width="3" paint-order="stroke" text-anchor="middle">verdict</text>
<text x="617.5" y="154.0" font-size="11" fill="#555" text-anchor="middle">verdict</text>
<text x="440" y="34" font-size="11" fill="#b8650a" text-anchor="middle" font-weight="700">tcx attaches via bpf_link: several programs in a kernel-managed order, no clsact qdisc</text>
<text x="440" y="284" font-size="11" fill="#888" text-anchor="middle">legacy (Ch 31): a clsact qdisc + a single tc filter, attached and ordered by hand</text>
</svg>