<svg xmlns="http://www.w3.org/2000/svg" viewBox="0 0 880 360" font-family="'Red Hat Text', system-ui, sans-serif" role="img">
<defs><marker id="a" viewBox="0 0 10 10" refX="8.5" refY="5" markerWidth="9" markerHeight="9" orient="auto-start-reverse"><path d="M0,0 L10,5 L0,10 z" fill="#555"/></marker><marker id="am" viewBox="0 0 10 10" refX="8.5" refY="5" markerWidth="9" markerHeight="9" orient="auto-start-reverse"><path d="M0,0 L10,5 L0,10 z" fill="#b8650a"/></marker></defs>
<rect x="30" y="150" width="140" height="58" rx="9" fill="#eef4fb" stroke="#2f6db5" stroke-width="2"/>
<text x="100.0" y="177.0" font-size="13.5" font-weight="700" fill="#111111" text-anchor="middle">HTTP request</text>
<text x="100.0" y="194.0" font-size="11.5" fill="#555555" text-anchor="middle">Java / Python</text>
<rect x="200" y="140" width="175" height="78" rx="9" fill="#fff8ef" stroke="#e8870c" stroke-width="2"/>
<text x="287.5" y="169.5" font-size="13.5" font-weight="700" fill="#111111" text-anchor="middle">eBPF socket probe</text>
<text x="287.5" y="186.5" font-size="11.5" fill="#555555" text-anchor="middle">recv → send timing</text>
<text x="287.5" y="201.5" font-size="11.5" fill="#555555" text-anchor="middle">+ comm (service)</text>
<rect x="410" y="150" width="150" height="58" rx="9" fill="#eef4fb" stroke="#2f6db5" stroke-width="2"/>
<text x="485.0" y="177.0" font-size="13.5" font-weight="700" fill="#111111" text-anchor="middle">loader mints</text>
<text x="485.0" y="194.0" font-size="11.5" fill="#555555" text-anchor="middle">one trace_id</text>
<rect x="610" y="66" width="240" height="50" rx="9" fill="#ffffff" stroke="#111111" stroke-width="2"/>
<text x="730.0" y="89.0" font-size="13.5" font-weight="700" fill="#111111" text-anchor="middle">span → Tempo</text>
<text x="730.0" y="106.0" font-size="11.5" fill="#555555" text-anchor="middle">http.server.request</text>
<rect x="610" y="154" width="240" height="50" rx="9" fill="#ffffff" stroke="#111111" stroke-width="2"/>
<text x="730.0" y="177.0" font-size="13.5" font-weight="700" fill="#111111" text-anchor="middle">log → Loki</text>
<text x="730.0" y="194.0" font-size="11.5" fill="#555555" text-anchor="middle">carries trace_id</text>
<rect x="610" y="242" width="240" height="50" rx="9" fill="#ffffff" stroke="#999999" stroke-width="1.5"/>
<text x="730.0" y="265.0" font-size="13.5" font-weight="700" fill="#111111" text-anchor="middle">metric → Prometheus</text>
<text x="730.0" y="282.0" font-size="11.5" fill="#555555" text-anchor="middle">RED + exemplar</text>
<path d="M170,179 L200,179" fill="none" stroke="#555" stroke-width="2" marker-end="url(#a)"/>
<path d="M375,179 L410,179" fill="none" stroke="#555" stroke-width="2" marker-end="url(#a)"/>
<path d="M560,168 L610,91" fill="none" stroke="#b8650a" stroke-width="2" marker-end="url(#am)"/>
<text x="591.0" y="125.5" font-size="11" fill="#ffffff" stroke="#ffffff" stroke-width="3" paint-order="stroke" text-anchor="middle">trace_id</text>
<text x="591.0" y="125.5" font-size="11" fill="#b8650a" text-anchor="middle">trace_id</text>
<path d="M560,179 L610,179" fill="none" stroke="#b8650a" stroke-width="2" marker-end="url(#am)"/>
<path d="M560,190 L610,267" fill="none" stroke="#b8650a" stroke-width="2" marker-end="url(#am)"/>
<text x="591.0" y="238.5" font-size="11" fill="#ffffff" stroke="#ffffff" stroke-width="3" paint-order="stroke" text-anchor="middle">trace_id</text>
<text x="591.0" y="238.5" font-size="11" fill="#b8650a" text-anchor="middle">trace_id</text>
<text x="440" y="30" font-size="11" fill="#b8650a" text-anchor="middle" font-weight="700">one request, one trace_id, three correlated signals — click metric → trace → logs in Grafana</text>
<text x="440" y="344" font-size="11" fill="#888" text-anchor="middle">we mint the trace_id in the loader; OBI propagates real W3C context across services</text>
</svg>