<svg xmlns="http://www.w3.org/2000/svg" viewBox="0 0 880 260" font-family="'Red Hat Text', system-ui, sans-serif" role="img">
<defs><marker id="a" viewBox="0 0 10 10" refX="8.5" refY="5" markerWidth="9" markerHeight="9" orient="auto-start-reverse"><path d="M0,0 L10,5 L0,10 z" fill="#555"/></marker><marker id="am" viewBox="0 0 10 10" refX="8.5" refY="5" markerWidth="9" markerHeight="9" orient="auto-start-reverse"><path d="M0,0 L10,5 L0,10 z" fill="#b8650a"/></marker></defs>
<rect x="30" y="95" width="170" height="64" rx="9" fill="#ffffff" stroke="#111111" stroke-width="2"/>
<text x="115.0" y="125.0" font-size="13.5" font-weight="700" fill="#111111" text-anchor="middle">process calls</text>
<text x="115.0" y="142.0" font-size="11.5" fill="#555555" text-anchor="middle">execve()</text>
<rect x="240" y="95" width="200" height="64" rx="9" fill="#fff8ef" stroke="#e8870c" stroke-width="2"/>
<text x="340.0" y="125.0" font-size="13.5" font-weight="700" fill="#111111" text-anchor="middle">tracepoint fires</text>
<text x="340.0" y="142.0" font-size="11.5" fill="#555555" text-anchor="middle">sys_enter_execve</text>
<rect x="480" y="80" width="200" height="94" rx="9" fill="#ffffff" stroke="#111111" stroke-width="2"/>
<text x="580.0" y="117.5" font-size="13.5" font-weight="700" fill="#111111" text-anchor="middle">eBPF program</text>
<text x="580.0" y="134.5" font-size="11.5" fill="#555555" text-anchor="middle">reads fields by offset</text>
<text x="580.0" y="149.5" font-size="11.5" fill="#555555" text-anchor="middle">argv: bounded loop</text>
<rect x="720" y="95" width="140" height="64" rx="9" fill="#eef4fb" stroke="#2f6db5" stroke-width="2"/>
<text x="790.0" y="125.0" font-size="13.5" font-weight="700" fill="#111111" text-anchor="middle">RingBuf → user</text>
<text x="790.0" y="142.0" font-size="11.5" fill="#555555" text-anchor="middle">execsnoop prints</text>
<text x="440" y="40" font-size="11" fill="#b8650a" text-anchor="middle" font-weight="700">a trace = hook an event, read its data, ship it out</text>
<text x="580" y="205" font-size="11" fill="#888" text-anchor="middle">offsets come from the tracepoint&#x27;s format file</text>
<path d="M200,127 L240,127" fill="none" stroke="#555" stroke-width="2" marker-end="url(#a)"/>
<path d="M440,127 L480,127" fill="none" stroke="#555" stroke-width="2" marker-end="url(#a)"/>
<path d="M680,127 L720,127" fill="none" stroke="#555" stroke-width="2" marker-end="url(#a)"/>
</svg>