<svg xmlns="http://www.w3.org/2000/svg" viewBox="0 0 880 300" font-family="'Red Hat Text', system-ui, sans-serif" role="img">
<defs><marker id="a" viewBox="0 0 10 10" refX="9" refY="5" markerWidth="7" markerHeight="7" orient="auto-start-reverse"><path d="M0,0 L10,5 L0,10 z" fill="#555"/></marker><marker id="am" viewBox="0 0 10 10" refX="9" refY="5" markerWidth="7" markerHeight="7" orient="auto-start-reverse"><path d="M0,0 L10,5 L0,10 z" fill="#b8650a"/></marker></defs>
<path d="M240,145 L290,145" fill="none" stroke="#555" stroke-width="2" marker-end="url(#a)"/>
<text x="253.0" y="141.0" font-size="11" fill="#555">has</text>
<path d="M500,145 L550,145" fill="none" stroke="#555" stroke-width="2" marker-end="url(#a)"/>
<path d="M700,145 L730,145" fill="none" stroke="#b8650a" stroke-width="2" marker-end="url(#am)"/>
<text x="675.0" y="141.0" font-size="11" fill="#b8650a">attach</text>
<path d="M430,240 L520,240" fill="none" stroke="#555" stroke-width="2" marker-end="url(#a)"/>
<text x="445.0" y="234.0" font-size="11" fill="#555">pause = Δt</text>
<rect x="40" y="110" width="200" height="70" rx="9" fill="#ffffff" stroke="#111111" stroke-width="2"/>
<text x="140.0" y="143.0" font-size="13.5" font-weight="700" fill="#111111" text-anchor="middle">libjvm.so</text>
<text x="140.0" y="160.0" font-size="11.5" fill="#555555" text-anchor="middle">ships hotspot USDT probes</text>
<rect x="290" y="110" width="210" height="70" rx="9" fill="#ffffff" stroke="#999999" stroke-width="1.5"/>
<text x="395.0" y="143.0" font-size="13.5" font-weight="700" fill="#111111" text-anchor="middle">.note.stapsdt</text>
<text x="395.0" y="160.0" font-size="11.5" fill="#555555" text-anchor="middle">name + Location (offset)</text>
<rect x="550" y="110" width="150" height="70" rx="9" fill="#ffffff" stroke="#111111" stroke-width="2"/>
<text x="625.0" y="143.0" font-size="13.5" font-weight="700" fill="#111111" text-anchor="middle">pahole -J</text>
<text x="625.0" y="160.0" font-size="11.5" fill="#555555" text-anchor="middle">readelf -n</text>
<rect x="730" y="110" width="130" height="70" rx="9" fill="#fff8ef" stroke="#e8870c" stroke-width="2"/>
<text x="795.0" y="143.0" font-size="13.5" font-weight="700" fill="#111111" text-anchor="middle">uprobe</text>
<text x="795.0" y="160.0" font-size="11.5" fill="#555555" text-anchor="middle">at that offset</text>
<rect x="300" y="215" width="130" height="50" rx="9" fill="#fff8ef" stroke="#e8870c" stroke-width="2"/>
<text x="365.0" y="245.5" font-size="13.5" font-weight="700" fill="#111111" text-anchor="middle">gc__begin</text>
<rect x="520" y="215" width="130" height="50" rx="9" fill="#fff8ef" stroke="#e8870c" stroke-width="2"/>
<text x="585.0" y="245.5" font-size="13.5" font-weight="700" fill="#111111" text-anchor="middle">gc__end</text>
<text x="440" y="40" font-size="11" fill="#b8650a" text-anchor="middle" font-weight="700">a USDT probe is just a uprobe at a fixed offset in the binary</text>
</svg>