<svg xmlns="http://www.w3.org/2000/svg" viewBox="0 0 880 330" font-family="'Red Hat Text', system-ui, sans-serif" role="img">
<defs><marker id="a" viewBox="0 0 10 10" refX="8.5" refY="5" markerWidth="9" markerHeight="9" orient="auto-start-reverse"><path d="M0,0 L10,5 L0,10 z" fill="#555"/></marker><marker id="am" viewBox="0 0 10 10" refX="8.5" refY="5" markerWidth="9" markerHeight="9" orient="auto-start-reverse"><path d="M0,0 L10,5 L0,10 z" fill="#b8650a"/></marker></defs>
<rect x="20" y="40" width="840" height="130" rx="12" fill="#fafafa" stroke="#ddd"/>
<text x="32" y="60" font-size="12" font-weight="700" fill="#888">cargo workspace</text>
<rect x="40" y="75" width="230" height="78" rx="9" fill="#ffffff" stroke="#111111" stroke-width="2"/>
<text x="155.0" y="104.5" font-size="13.5" font-weight="700" fill="#111111" text-anchor="middle">common</text>
<text x="155.0" y="121.5" font-size="11.5" fill="#555555" text-anchor="middle">#[repr(C)] shared types</text>
<text x="155.0" y="136.5" font-size="11.5" fill="#555555" text-anchor="middle">no_std + &quot;user&quot; feature</text>
<rect x="300" y="75" width="230" height="78" rx="9" fill="#fff8ef" stroke="#e8870c" stroke-width="2"/>
<text x="415.0" y="112.0" font-size="13.5" font-weight="700" fill="#111111" text-anchor="middle">ebpf (excluded crate)</text>
<text x="415.0" y="129.0" font-size="11.5" fill="#555555" text-anchor="middle">kernel program, no_std</text>
<rect x="580" y="75" width="260" height="78" rx="9" fill="#eef4fb" stroke="#2f6db5" stroke-width="2"/>
<text x="710.0" y="112.0" font-size="13.5" font-weight="700" fill="#111111" text-anchor="middle">loader</text>
<text x="710.0" y="129.0" font-size="11.5" fill="#555555" text-anchor="middle">aya + tokio + OTLP</text>
<rect x="300" y="215" width="230" height="60" rx="9" fill="#ffffff" stroke="#111111" stroke-width="2"/>
<text x="415.0" y="243.0" font-size="13.5" font-weight="700" fill="#111111" text-anchor="middle">build.rs (aya-build)</text>
<text x="415.0" y="260.0" font-size="11.5" fill="#555555" text-anchor="middle">compiles the ebpf crate</text>
<rect x="600" y="215" width="150" height="60" rx="9" fill="#ffffff" stroke="#999999" stroke-width="1.5"/>
<text x="675.0" y="243.0" font-size="13.5" font-weight="700" fill="#111111" text-anchor="middle">BPF object</text>
<text x="675.0" y="260.0" font-size="11.5" fill="#555555" text-anchor="middle">in OUT_DIR</text>
<text x="440" y="305" font-size="11" fill="#888" text-anchor="middle">one cargo build → one self-contained loader binary</text>
<path d="M270,114 L300,114" fill="none" stroke="#555" stroke-width="2" stroke-dasharray="5 4" marker-end="url(#a)"/>
<text x="267.0" y="110.0" font-size="11" fill="#555">types</text>
<path d="M415,153 L415,215" fill="none" stroke="#555" stroke-width="2" marker-end="url(#a)"/>
<text x="421.0" y="184.0" font-size="11" fill="#555">built by</text>
<path d="M530,245 L600,245" fill="none" stroke="#555" stroke-width="2" marker-end="url(#a)"/>
<path d="M675,215 L710,153" fill="none" stroke="#b8650a" stroke-width="2" marker-end="url(#am)"/>
<text x="542.5" y="184.0" font-size="11" fill="#b8650a">include_bytes_aligned!</text>
</svg>