<svg xmlns="http://www.w3.org/2000/svg" viewBox="0 0 880 320" font-family="'Red Hat Text', system-ui, sans-serif" role="img">
<defs><marker id="a" viewBox="0 0 10 10" refX="8.5" refY="5" markerWidth="9" markerHeight="9" orient="auto-start-reverse"><path d="M0,0 L10,5 L0,10 z" fill="#555"/></marker><marker id="am" viewBox="0 0 10 10" refX="8.5" refY="5" markerWidth="9" markerHeight="9" orient="auto-start-reverse"><path d="M0,0 L10,5 L0,10 z" fill="#b8650a"/></marker></defs>
<rect x="40" y="130" width="160" height="64" rx="9" fill="#eef4fb" stroke="#2f6db5" stroke-width="2"/>
<text x="120.0" y="160.0" font-size="13.5" font-weight="700" fill="#111111" text-anchor="middle">client (peer)</text>
<text x="120.0" y="177.0" font-size="11.5" fill="#555555" text-anchor="middle">UDP → VIP:8080</text>
<rect x="280" y="108" width="260" height="104" rx="9" fill="#fff8ef" stroke="#e8870c" stroke-width="2"/>
<text x="410.0" y="150.5" font-size="13.5" font-weight="700" fill="#111111" text-anchor="middle">XDP load balancer</text>
<text x="410.0" y="167.5" font-size="11.5" fill="#555555" text-anchor="middle">rewrite dst port (round-robin)</text>
<text x="410.0" y="182.5" font-size="11.5" fill="#555555" text-anchor="middle">BACKENDS[idx % N]</text>
<rect x="640" y="48" width="200" height="48" rx="9" fill="#ffffff" stroke="#111111" stroke-width="2"/>
<text x="740.0" y="77.5" font-size="13.5" font-weight="700" fill="#111111" text-anchor="middle">backend :9001</text>
<rect x="640" y="136" width="200" height="48" rx="9" fill="#ffffff" stroke="#111111" stroke-width="2"/>
<text x="740.0" y="165.5" font-size="13.5" font-weight="700" fill="#111111" text-anchor="middle">backend :9002</text>
<rect x="640" y="224" width="200" height="48" rx="9" fill="#ffffff" stroke="#111111" stroke-width="2"/>
<text x="740.0" y="253.5" font-size="13.5" font-weight="700" fill="#111111" text-anchor="middle">backend :9003</text>
<path d="M200,162 L280,162" fill="none" stroke="#555" stroke-width="2" marker-end="url(#a)"/>
<text x="240.0" y="154.0" font-size="11" fill="#ffffff" stroke="#ffffff" stroke-width="3" paint-order="stroke" text-anchor="middle">VIP:8080</text>
<text x="240.0" y="154.0" font-size="11" fill="#555" text-anchor="middle">VIP:8080</text>
<path d="M540,140 L640,72" fill="none" stroke="#555" stroke-width="2" marker-end="url(#a)"/>
<text x="596.0" y="100.0" font-size="11" fill="#ffffff" stroke="#ffffff" stroke-width="3" paint-order="stroke" text-anchor="middle">⅓</text>
<text x="596.0" y="100.0" font-size="11" fill="#555" text-anchor="middle">⅓</text>
<path d="M540,160 L640,160" fill="none" stroke="#555" stroke-width="2" marker-end="url(#a)"/>
<text x="596.0" y="154.0" font-size="11" fill="#ffffff" stroke="#ffffff" stroke-width="3" paint-order="stroke" text-anchor="middle">⅓</text>
<text x="596.0" y="154.0" font-size="11" fill="#555" text-anchor="middle">⅓</text>
<path d="M540,180 L640,248" fill="none" stroke="#555" stroke-width="2" marker-end="url(#a)"/>
<text x="596.0" y="208.0" font-size="11" fill="#ffffff" stroke="#ffffff" stroke-width="3" paint-order="stroke" text-anchor="middle">⅓</text>
<text x="596.0" y="208.0" font-size="11" fill="#555" text-anchor="middle">⅓</text>
<text x="440" y="34" font-size="11" fill="#b8650a" text-anchor="middle" font-weight="700">one virtual port fanned out across backends by rewriting the UDP dest port</text>
<text x="440" y="304" font-size="11" fill="#888" text-anchor="middle">XDP_PASS delivers locally; XDP_REDIRECT would forward to backends on other hosts</text>
</svg>